<mxfile host="app.diagrams.net" agent="Mozilla/5.0 (Windows NT 10.0; Win64; x64) AppleWebKit/537.36 (KHTML, like Gecko) Chrome/130.0.0.0 Safari/537.36 Edg/130.0.0.0" version="24.8.3" pages="3">
  <diagram name="Page-1" id="AYqy5vLGufY0Dmio-iqR">
    <mxGraphModel dx="1660" dy="1002" grid="1" gridSize="10" guides="1" tooltips="1" connect="1" arrows="1" fold="1" page="0" pageScale="1" pageWidth="850" pageHeight="1100" math="0" shadow="0">
      <root>
        <mxCell id="0" />
        <mxCell id="1" parent="0" />
        <mxCell id="pzosSizLUPnt18hDd_R9-1" value="ADMIN" style="shape=umlActor;verticalLabelPosition=bottom;verticalAlign=top;html=1;outlineConnect=0;" vertex="1" parent="1">
          <mxGeometry x="80" y="280" width="30" height="60" as="geometry" />
        </mxCell>
        <mxCell id="pzosSizLUPnt18hDd_R9-2" value="USER" style="shape=umlActor;verticalLabelPosition=bottom;verticalAlign=top;html=1;outlineConnect=0;" vertex="1" parent="1">
          <mxGeometry x="80" y="795" width="30" height="60" as="geometry" />
        </mxCell>
        <mxCell id="pzosSizLUPnt18hDd_R9-3" value="SIGN UP" style="ellipse;whiteSpace=wrap;html=1;" vertex="1" parent="1">
          <mxGeometry x="190" y="890" width="120" height="80" as="geometry" />
        </mxCell>
        <mxCell id="pzosSizLUPnt18hDd_R9-5" value="LOGIN" style="ellipse;whiteSpace=wrap;html=1;" vertex="1" parent="1">
          <mxGeometry x="190" y="690" width="120" height="80" as="geometry" />
        </mxCell>
        <mxCell id="pzosSizLUPnt18hDd_R9-8" value="&amp;lt;&amp;lt;include&amp;gt;&amp;gt;" style="html=1;verticalAlign=bottom;labelBackgroundColor=none;endArrow=open;endFill=0;dashed=1;rounded=0;entryX=0;entryY=0.5;entryDx=0;entryDy=0;" edge="1" parent="1" target="pzosSizLUPnt18hDd_R9-3">
          <mxGeometry width="160" relative="1" as="geometry">
            <mxPoint x="120" y="825" as="sourcePoint" />
            <mxPoint x="510" y="745" as="targetPoint" />
          </mxGeometry>
        </mxCell>
        <mxCell id="pzosSizLUPnt18hDd_R9-10" value="&amp;lt;&amp;lt;include&amp;gt;&amp;gt;" style="html=1;verticalAlign=bottom;labelBackgroundColor=none;endArrow=open;endFill=0;dashed=1;rounded=0;entryX=0;entryY=0.5;entryDx=0;entryDy=0;" edge="1" parent="1" target="pzosSizLUPnt18hDd_R9-5">
          <mxGeometry width="160" relative="1" as="geometry">
            <mxPoint x="120" y="815" as="sourcePoint" />
            <mxPoint x="320" y="805" as="targetPoint" />
          </mxGeometry>
        </mxCell>
        <mxCell id="pzosSizLUPnt18hDd_R9-14" value="&lt;span style=&quot;font-size:11.0pt;line-height:107%;&lt;br/&gt;font-family:&amp;quot;Calibri&amp;quot;,sans-serif;mso-ascii-theme-font:minor-latin;mso-fareast-font-family:&lt;br/&gt;DengXian;mso-fareast-theme-font:minor-fareast;mso-hansi-theme-font:minor-latin;&lt;br/&gt;mso-bidi-font-family:&amp;quot;Times New Roman&amp;quot;;mso-bidi-theme-font:minor-bidi;&lt;br/&gt;mso-ansi-language:EN-US;mso-fareast-language:ZH-CN;mso-bidi-language:AR-SA&quot;&gt;Quản lý tài khoản người dùng&lt;/span&gt;" style="ellipse;whiteSpace=wrap;html=1;" vertex="1" parent="1">
          <mxGeometry x="520" y="920" width="240" height="80" as="geometry" />
        </mxCell>
        <mxCell id="pzosSizLUPnt18hDd_R9-16" value="&lt;span style=&quot;font-size:11.0pt;line-height:107%;&lt;br/&gt;font-family:&amp;quot;Calibri&amp;quot;,sans-serif;mso-ascii-theme-font:minor-latin;mso-fareast-font-family:&lt;br/&gt;DengXian;mso-fareast-theme-font:minor-fareast;mso-hansi-theme-font:minor-latin;&lt;br/&gt;mso-bidi-font-family:&amp;quot;Times New Roman&amp;quot;;mso-bidi-theme-font:minor-bidi;&lt;br/&gt;mso-ansi-language:EN-US;mso-fareast-language:ZH-CN;mso-bidi-language:AR-SA&quot;&gt;Chọn và truy cập khóa học&lt;/span&gt;" style="ellipse;whiteSpace=wrap;html=1;" vertex="1" parent="1">
          <mxGeometry x="520" y="795" width="240" height="80" as="geometry" />
        </mxCell>
        <mxCell id="pzosSizLUPnt18hDd_R9-17" value="&lt;span style=&quot;font-size:11.0pt;line-height:107%;&lt;br/&gt;font-family:&amp;quot;Calibri&amp;quot;,sans-serif;mso-ascii-theme-font:minor-latin;mso-fareast-font-family:&lt;br/&gt;DengXian;mso-fareast-theme-font:minor-fareast;mso-hansi-theme-font:minor-latin;&lt;br/&gt;mso-bidi-font-family:&amp;quot;Times New Roman&amp;quot;;mso-bidi-theme-font:minor-bidi;&lt;br/&gt;mso-ansi-language:EN-US;mso-fareast-language:ZH-CN;mso-bidi-language:AR-SA&quot;&gt;Tham gia và làm bài tập&lt;/span&gt;" style="ellipse;whiteSpace=wrap;html=1;" vertex="1" parent="1">
          <mxGeometry x="840" y="795" width="240" height="80" as="geometry" />
        </mxCell>
        <mxCell id="pzosSizLUPnt18hDd_R9-18" value="&lt;span style=&quot;font-size:11.0pt;line-height:107%;&lt;br/&gt;font-family:&amp;quot;Calibri&amp;quot;,sans-serif;mso-ascii-theme-font:minor-latin;mso-fareast-font-family:&lt;br/&gt;DengXian;mso-fareast-theme-font:minor-fareast;mso-hansi-theme-font:minor-latin;&lt;br/&gt;mso-bidi-font-family:&amp;quot;Times New Roman&amp;quot;;mso-bidi-theme-font:minor-bidi;&lt;br/&gt;mso-ansi-language:EN-US;mso-fareast-language:ZH-CN;mso-bidi-language:AR-SA&quot;&gt;Xem kết quả và phản hồi&lt;/span&gt;" style="ellipse;whiteSpace=wrap;html=1;" vertex="1" parent="1">
          <mxGeometry x="840" y="660" width="240" height="80" as="geometry" />
        </mxCell>
        <mxCell id="pzosSizLUPnt18hDd_R9-19" value="&lt;span style=&quot;font-size:11.0pt;line-height:107%;&lt;br/&gt;font-family:&amp;quot;Calibri&amp;quot;,sans-serif;mso-ascii-theme-font:minor-latin;mso-fareast-font-family:&lt;br/&gt;DengXian;mso-fareast-theme-font:minor-fareast;mso-hansi-theme-font:minor-latin;&lt;br/&gt;mso-bidi-font-family:&amp;quot;Times New Roman&amp;quot;;mso-bidi-theme-font:minor-bidi;&lt;br/&gt;mso-ansi-language:EN-US;mso-fareast-language:ZH-CN;mso-bidi-language:AR-SA&quot;&gt;Quản lý gamification&lt;/span&gt;" style="ellipse;whiteSpace=wrap;html=1;" vertex="1" parent="1">
          <mxGeometry x="520" y="660" width="240" height="80" as="geometry" />
        </mxCell>
        <mxCell id="pzosSizLUPnt18hDd_R9-20" value="&lt;span style=&quot;font-size:11.0pt;line-height:107%;&lt;br/&gt;font-family:&amp;quot;Calibri&amp;quot;,sans-serif;mso-ascii-theme-font:minor-latin;mso-fareast-font-family:&lt;br/&gt;DengXian;mso-fareast-theme-font:minor-fareast;mso-hansi-theme-font:minor-latin;&lt;br/&gt;mso-bidi-font-family:&amp;quot;Times New Roman&amp;quot;;mso-bidi-theme-font:minor-bidi;&lt;br/&gt;mso-ansi-language:EN-US;mso-fareast-language:ZH-CN;mso-bidi-language:AR-SA&quot;&gt;Quản lý người dùng&lt;/span&gt;" style="ellipse;whiteSpace=wrap;html=1;" vertex="1" parent="1">
          <mxGeometry x="520" y="400" width="240" height="80" as="geometry" />
        </mxCell>
        <mxCell id="pzosSizLUPnt18hDd_R9-21" value="&lt;span style=&quot;font-size:11.0pt;line-height:107%;&lt;br/&gt;font-family:&amp;quot;Calibri&amp;quot;,sans-serif;mso-ascii-theme-font:minor-latin;mso-fareast-font-family:&lt;br/&gt;DengXian;mso-fareast-theme-font:minor-fareast;mso-hansi-theme-font:minor-latin;&lt;br/&gt;mso-bidi-font-family:&amp;quot;Times New Roman&amp;quot;;mso-bidi-theme-font:minor-bidi;&lt;br/&gt;mso-ansi-language:EN-US;mso-fareast-language:ZH-CN;mso-bidi-language:AR-SA&quot;&gt;Quản lý khóa học&lt;/span&gt;" style="ellipse;whiteSpace=wrap;html=1;" vertex="1" parent="1">
          <mxGeometry x="520" y="280" width="240" height="80" as="geometry" />
        </mxCell>
        <mxCell id="pzosSizLUPnt18hDd_R9-22" value="&lt;span style=&quot;font-size:11.0pt;line-height:107%;&lt;br/&gt;font-family:&amp;quot;Calibri&amp;quot;,sans-serif;mso-ascii-theme-font:minor-latin;mso-fareast-font-family:&lt;br/&gt;DengXian;mso-fareast-theme-font:minor-fareast;mso-hansi-theme-font:minor-latin;&lt;br/&gt;mso-bidi-font-family:&amp;quot;Times New Roman&amp;quot;;mso-bidi-theme-font:minor-bidi;&lt;br/&gt;mso-ansi-language:EN-US;mso-fareast-language:ZH-CN;mso-bidi-language:AR-SA&quot;&gt;Xử lý phản hồi và báo lỗi&amp;nbsp;&lt;/span&gt;" style="ellipse;whiteSpace=wrap;html=1;" vertex="1" parent="1">
          <mxGeometry x="520" y="160" width="240" height="80" as="geometry" />
        </mxCell>
        <mxCell id="pzosSizLUPnt18hDd_R9-23" value="Khôi phục mật khẩu" style="ellipse;whiteSpace=wrap;html=1;" vertex="1" parent="1">
          <mxGeometry x="190" y="520" width="120" height="80" as="geometry" />
        </mxCell>
        <mxCell id="pzosSizLUPnt18hDd_R9-24" value="&amp;lt;&amp;lt;extend&amp;gt;&amp;gt;" style="html=1;verticalAlign=bottom;labelBackgroundColor=none;endArrow=open;endFill=0;dashed=1;rounded=0;exitX=0.5;exitY=0;exitDx=0;exitDy=0;entryX=0.5;entryY=1;entryDx=0;entryDy=0;" edge="1" parent="1" source="pzosSizLUPnt18hDd_R9-5" target="pzosSizLUPnt18hDd_R9-23">
          <mxGeometry width="160" relative="1" as="geometry">
            <mxPoint x="380" y="630" as="sourcePoint" />
            <mxPoint x="540" y="630" as="targetPoint" />
          </mxGeometry>
        </mxCell>
        <mxCell id="pzosSizLUPnt18hDd_R9-25" value="&amp;lt;&amp;lt;include&amp;gt;&amp;gt;" style="html=1;verticalAlign=bottom;labelBackgroundColor=none;endArrow=open;endFill=0;dashed=1;rounded=0;entryX=0;entryY=0.5;entryDx=0;entryDy=0;exitX=1;exitY=0.5;exitDx=0;exitDy=0;" edge="1" parent="1" source="pzosSizLUPnt18hDd_R9-5" target="pzosSizLUPnt18hDd_R9-14">
          <mxGeometry width="160" relative="1" as="geometry">
            <mxPoint x="130" y="825" as="sourcePoint" />
            <mxPoint x="200" y="740" as="targetPoint" />
          </mxGeometry>
        </mxCell>
        <mxCell id="pzosSizLUPnt18hDd_R9-26" value="&amp;lt;&amp;lt;include&amp;gt;&amp;gt;" style="html=1;verticalAlign=bottom;labelBackgroundColor=none;endArrow=open;endFill=0;dashed=1;rounded=0;entryX=0;entryY=0.5;entryDx=0;entryDy=0;exitX=1;exitY=0.5;exitDx=0;exitDy=0;" edge="1" parent="1" source="pzosSizLUPnt18hDd_R9-5" target="pzosSizLUPnt18hDd_R9-16">
          <mxGeometry width="160" relative="1" as="geometry">
            <mxPoint x="302" y="768" as="sourcePoint" />
            <mxPoint x="520" y="970" as="targetPoint" />
          </mxGeometry>
        </mxCell>
        <mxCell id="pzosSizLUPnt18hDd_R9-27" value="&amp;lt;&amp;lt;include&amp;gt;&amp;gt;" style="html=1;verticalAlign=bottom;labelBackgroundColor=none;endArrow=open;endFill=0;dashed=1;rounded=0;entryX=0;entryY=0.5;entryDx=0;entryDy=0;exitX=1;exitY=0.5;exitDx=0;exitDy=0;" edge="1" parent="1" source="pzosSizLUPnt18hDd_R9-16" target="pzosSizLUPnt18hDd_R9-17">
          <mxGeometry width="160" relative="1" as="geometry">
            <mxPoint x="320" y="740" as="sourcePoint" />
            <mxPoint x="520" y="870" as="targetPoint" />
          </mxGeometry>
        </mxCell>
        <mxCell id="pzosSizLUPnt18hDd_R9-29" value="&amp;lt;&amp;lt;include&amp;gt;&amp;gt;" style="html=1;verticalAlign=bottom;labelBackgroundColor=none;endArrow=open;endFill=0;dashed=1;rounded=0;entryX=0.5;entryY=1;entryDx=0;entryDy=0;exitX=0.5;exitY=0;exitDx=0;exitDy=0;" edge="1" parent="1" source="pzosSizLUPnt18hDd_R9-17" target="pzosSizLUPnt18hDd_R9-18">
          <mxGeometry width="160" relative="1" as="geometry">
            <mxPoint x="320" y="740" as="sourcePoint" />
            <mxPoint x="520" y="770" as="targetPoint" />
          </mxGeometry>
        </mxCell>
        <mxCell id="pzosSizLUPnt18hDd_R9-30" value="&amp;lt;&amp;lt;include&amp;gt;&amp;gt;" style="html=1;verticalAlign=bottom;labelBackgroundColor=none;endArrow=open;endFill=0;dashed=1;rounded=0;entryX=0;entryY=0.5;entryDx=0;entryDy=0;" edge="1" parent="1" target="pzosSizLUPnt18hDd_R9-19">
          <mxGeometry width="160" relative="1" as="geometry">
            <mxPoint x="310" y="730" as="sourcePoint" />
            <mxPoint x="520" y="670" as="targetPoint" />
          </mxGeometry>
        </mxCell>
        <mxCell id="pzosSizLUPnt18hDd_R9-31" value="&lt;span style=&quot;font-size:11.0pt;line-height:107%;&lt;br/&gt;font-family:&amp;quot;Calibri&amp;quot;,sans-serif;mso-ascii-theme-font:minor-latin;mso-fareast-font-family:&lt;br/&gt;DengXian;mso-fareast-theme-font:minor-fareast;mso-hansi-theme-font:minor-latin;&lt;br/&gt;mso-bidi-font-family:&amp;quot;Times New Roman&amp;quot;;mso-bidi-theme-font:minor-bidi;&lt;br/&gt;mso-ansi-language:EN-US;mso-fareast-language:ZH-CN;mso-bidi-language:AR-SA&quot;&gt;Xem tiến trình học tập&lt;/span&gt;" style="ellipse;whiteSpace=wrap;html=1;" vertex="1" parent="1">
          <mxGeometry x="840" y="920" width="240" height="80" as="geometry" />
        </mxCell>
        <mxCell id="pzosSizLUPnt18hDd_R9-32" value="&amp;lt;&amp;lt;include&amp;gt;&amp;gt;" style="html=1;verticalAlign=bottom;labelBackgroundColor=none;endArrow=open;endFill=0;dashed=1;rounded=0;exitX=0.5;exitY=0;exitDx=0;exitDy=0;entryX=0;entryY=0.5;entryDx=0;entryDy=0;" edge="1" parent="1" target="pzosSizLUPnt18hDd_R9-31">
          <mxGeometry width="160" relative="1" as="geometry">
            <mxPoint x="750" y="960" as="sourcePoint" />
            <mxPoint x="750" y="870" as="targetPoint" />
          </mxGeometry>
        </mxCell>
        <mxCell id="pzosSizLUPnt18hDd_R9-33" value="&lt;span style=&quot;font-size:11.0pt;line-height:107%;&lt;br/&gt;font-family:&amp;quot;Calibri&amp;quot;,sans-serif;mso-ascii-theme-font:minor-latin;mso-fareast-font-family:&lt;br/&gt;DengXian;mso-fareast-theme-font:minor-fareast;mso-hansi-theme-font:minor-latin;&lt;br/&gt;mso-bidi-font-family:&amp;quot;Times New Roman&amp;quot;;mso-bidi-theme-font:minor-bidi;&lt;br/&gt;mso-ansi-language:EN-US;mso-fareast-language:ZH-CN;mso-bidi-language:AR-SA&quot;&gt;Gửi phản hồi đến Admin&lt;/span&gt;" style="ellipse;whiteSpace=wrap;html=1;" vertex="1" parent="1">
          <mxGeometry x="840" y="520" width="240" height="80" as="geometry" />
        </mxCell>
        <mxCell id="pzosSizLUPnt18hDd_R9-34" value="&amp;lt;&amp;lt;extend&amp;gt;&amp;gt;" style="html=1;verticalAlign=bottom;labelBackgroundColor=none;endArrow=open;endFill=0;dashed=1;rounded=0;exitX=0.5;exitY=0;exitDx=0;exitDy=0;entryX=0.5;entryY=1;entryDx=0;entryDy=0;" edge="1" parent="1" source="pzosSizLUPnt18hDd_R9-18" target="pzosSizLUPnt18hDd_R9-33">
          <mxGeometry width="160" relative="1" as="geometry">
            <mxPoint x="260" y="700" as="sourcePoint" />
            <mxPoint x="260" y="610" as="targetPoint" />
          </mxGeometry>
        </mxCell>
        <mxCell id="pzosSizLUPnt18hDd_R9-35" value="LOGIN" style="ellipse;whiteSpace=wrap;html=1;" vertex="1" parent="1">
          <mxGeometry x="190" y="280" width="120" height="80" as="geometry" />
        </mxCell>
        <mxCell id="pzosSizLUPnt18hDd_R9-36" value="&amp;lt;&amp;lt;include&amp;gt;&amp;gt;" style="html=1;verticalAlign=bottom;labelBackgroundColor=none;endArrow=open;endFill=0;dashed=1;rounded=0;entryX=0;entryY=0.5;entryDx=0;entryDy=0;" edge="1" parent="1" target="pzosSizLUPnt18hDd_R9-35">
          <mxGeometry width="160" relative="1" as="geometry">
            <mxPoint x="120" y="320" as="sourcePoint" />
            <mxPoint x="200" y="840" as="targetPoint" />
          </mxGeometry>
        </mxCell>
        <mxCell id="pzosSizLUPnt18hDd_R9-37" value="&amp;lt;&amp;lt;include&amp;gt;&amp;gt;" style="html=1;verticalAlign=bottom;labelBackgroundColor=none;endArrow=open;endFill=0;dashed=1;rounded=0;entryX=0;entryY=0.5;entryDx=0;entryDy=0;exitX=1;exitY=0.5;exitDx=0;exitDy=0;" edge="1" parent="1" source="pzosSizLUPnt18hDd_R9-35" target="pzosSizLUPnt18hDd_R9-20">
          <mxGeometry width="160" relative="1" as="geometry">
            <mxPoint x="290" y="430" as="sourcePoint" />
            <mxPoint x="500" y="400" as="targetPoint" />
          </mxGeometry>
        </mxCell>
        <mxCell id="pzosSizLUPnt18hDd_R9-38" value="&amp;lt;&amp;lt;include&amp;gt;&amp;gt;" style="html=1;verticalAlign=bottom;labelBackgroundColor=none;endArrow=open;endFill=0;dashed=1;rounded=0;entryX=0;entryY=0.5;entryDx=0;entryDy=0;exitX=1;exitY=0.5;exitDx=0;exitDy=0;" edge="1" parent="1" source="pzosSizLUPnt18hDd_R9-35" target="pzosSizLUPnt18hDd_R9-21">
          <mxGeometry width="160" relative="1" as="geometry">
            <mxPoint x="310" y="300" as="sourcePoint" />
            <mxPoint x="530" y="450" as="targetPoint" />
          </mxGeometry>
        </mxCell>
        <mxCell id="pzosSizLUPnt18hDd_R9-39" value="&amp;lt;&amp;lt;include&amp;gt;&amp;gt;" style="html=1;verticalAlign=bottom;labelBackgroundColor=none;endArrow=open;endFill=0;dashed=1;rounded=0;entryX=0;entryY=0.5;entryDx=0;entryDy=0;exitX=1;exitY=0.5;exitDx=0;exitDy=0;" edge="1" parent="1" source="pzosSizLUPnt18hDd_R9-35" target="pzosSizLUPnt18hDd_R9-22">
          <mxGeometry width="160" relative="1" as="geometry">
            <mxPoint x="310" y="300" as="sourcePoint" />
            <mxPoint x="530" y="350" as="targetPoint" />
          </mxGeometry>
        </mxCell>
        <mxCell id="pzosSizLUPnt18hDd_R9-41" value="&lt;span style=&quot;font-size:11.0pt;line-height:107%;&lt;br/&gt;font-family:&amp;quot;Calibri&amp;quot;,sans-serif;mso-ascii-theme-font:minor-latin;mso-fareast-font-family:&lt;br/&gt;DengXian;mso-fareast-theme-font:minor-fareast;mso-hansi-theme-font:minor-latin;&lt;br/&gt;mso-bidi-font-family:&amp;quot;Times New Roman&amp;quot;;mso-bidi-theme-font:minor-bidi;&lt;br/&gt;mso-ansi-language:EN-US;mso-fareast-language:ZH-CN;mso-bidi-language:AR-SA&quot;&gt;Mở/ Khóa tài khoản User&lt;/span&gt;" style="ellipse;whiteSpace=wrap;html=1;" vertex="1" parent="1">
          <mxGeometry x="840" y="400" width="240" height="80" as="geometry" />
        </mxCell>
        <mxCell id="pzosSizLUPnt18hDd_R9-42" value="&amp;lt;&amp;lt;include&amp;gt;&amp;gt;" style="html=1;verticalAlign=bottom;labelBackgroundColor=none;endArrow=open;endFill=0;dashed=1;rounded=0;entryX=0;entryY=0.5;entryDx=0;entryDy=0;exitX=1;exitY=0.5;exitDx=0;exitDy=0;" edge="1" parent="1" source="pzosSizLUPnt18hDd_R9-20" target="pzosSizLUPnt18hDd_R9-41">
          <mxGeometry width="160" relative="1" as="geometry">
            <mxPoint x="760" y="510" as="sourcePoint" />
            <mxPoint x="970" y="480" as="targetPoint" />
          </mxGeometry>
        </mxCell>
        <mxCell id="pzosSizLUPnt18hDd_R9-43" value="&lt;span style=&quot;font-size:11.0pt;line-height:107%;&lt;br/&gt;font-family:&amp;quot;Calibri&amp;quot;,sans-serif;mso-ascii-theme-font:minor-latin;mso-fareast-font-family:&lt;br/&gt;DengXian;mso-fareast-theme-font:minor-fareast;mso-hansi-theme-font:minor-latin;&lt;br/&gt;mso-bidi-font-family:&amp;quot;Times New Roman&amp;quot;;mso-bidi-theme-font:minor-bidi;&lt;br/&gt;mso-ansi-language:EN-US;mso-fareast-language:ZH-CN;mso-bidi-language:AR-SA&quot;&gt;Thêm, sửa, xóa bài học, bài tập&lt;br&gt;Phân loại cấp độ&lt;/span&gt;" style="ellipse;whiteSpace=wrap;html=1;" vertex="1" parent="1">
          <mxGeometry x="840" y="280" width="240" height="80" as="geometry" />
        </mxCell>
        <mxCell id="pzosSizLUPnt18hDd_R9-44" value="&amp;lt;&amp;lt;extend&amp;gt;&amp;gt;" style="html=1;verticalAlign=bottom;labelBackgroundColor=none;endArrow=open;endFill=0;dashed=1;rounded=0;exitX=1;exitY=0.5;exitDx=0;exitDy=0;entryX=0;entryY=0.5;entryDx=0;entryDy=0;" edge="1" parent="1" source="pzosSizLUPnt18hDd_R9-21" target="pzosSizLUPnt18hDd_R9-43">
          <mxGeometry width="160" relative="1" as="geometry">
            <mxPoint x="970" y="750" as="sourcePoint" />
            <mxPoint x="970" y="690" as="targetPoint" />
          </mxGeometry>
        </mxCell>
        <mxCell id="pzosSizLUPnt18hDd_R9-45" value="&lt;span style=&quot;font-size: 14.6667px;&quot;&gt;Nhận và xử lý phản hồi từ user&lt;/span&gt;" style="ellipse;whiteSpace=wrap;html=1;" vertex="1" parent="1">
          <mxGeometry x="840" y="160" width="240" height="80" as="geometry" />
        </mxCell>
        <mxCell id="pzosSizLUPnt18hDd_R9-46" value="&amp;lt;&amp;lt;extend&amp;gt;&amp;gt;" style="html=1;verticalAlign=bottom;labelBackgroundColor=none;endArrow=open;endFill=0;dashed=1;rounded=0;exitX=1;exitY=0.5;exitDx=0;exitDy=0;entryX=0;entryY=0.5;entryDx=0;entryDy=0;" edge="1" parent="1" source="pzosSizLUPnt18hDd_R9-22" target="pzosSizLUPnt18hDd_R9-45">
          <mxGeometry width="160" relative="1" as="geometry">
            <mxPoint x="770" y="330" as="sourcePoint" />
            <mxPoint x="850" y="330" as="targetPoint" />
          </mxGeometry>
        </mxCell>
      </root>
    </mxGraphModel>
  </diagram>
  <diagram id="kB4BH0634Ue-1v--nD_P" name="Page-2">
    <mxGraphModel dx="2792" dy="1134" grid="1" gridSize="10" guides="1" tooltips="1" connect="1" arrows="1" fold="1" page="0" pageScale="1" pageWidth="850" pageHeight="1100" math="0" shadow="0">
      <root>
        <mxCell id="0" />
        <mxCell id="1" parent="0" />
        <mxCell id="U8-OKU-Ful8UIuGXWL6l-3" value="" style="edgeStyle=orthogonalEdgeStyle;rounded=0;orthogonalLoop=1;jettySize=auto;html=1;" parent="1" source="U8-OKU-Ful8UIuGXWL6l-1" target="U8-OKU-Ful8UIuGXWL6l-2" edge="1">
          <mxGeometry relative="1" as="geometry" />
        </mxCell>
        <mxCell id="U8-OKU-Ful8UIuGXWL6l-1" value="" style="ellipse;fillColor=strokeColor;html=1;" parent="1" vertex="1">
          <mxGeometry x="400" y="350" width="30" height="30" as="geometry" />
        </mxCell>
        <mxCell id="U8-OKU-Ful8UIuGXWL6l-7" value="" style="edgeStyle=orthogonalEdgeStyle;rounded=0;orthogonalLoop=1;jettySize=auto;html=1;" parent="1" source="U8-OKU-Ful8UIuGXWL6l-2" target="U8-OKU-Ful8UIuGXWL6l-6" edge="1">
          <mxGeometry relative="1" as="geometry" />
        </mxCell>
        <mxCell id="U8-OKU-Ful8UIuGXWL6l-2" value="Hello Page" style="ellipse;whiteSpace=wrap;html=1;" parent="1" vertex="1">
          <mxGeometry x="350" y="420" width="130" height="80" as="geometry" />
        </mxCell>
        <mxCell id="U8-OKU-Ful8UIuGXWL6l-6" value="Start the course" style="ellipse;whiteSpace=wrap;html=1;" parent="1" vertex="1">
          <mxGeometry x="350" y="540" width="130" height="80" as="geometry" />
        </mxCell>
        <mxCell id="U8-OKU-Ful8UIuGXWL6l-11" value="" style="edgeStyle=orthogonalEdgeStyle;rounded=0;orthogonalLoop=1;jettySize=auto;html=1;exitX=0.5;exitY=1;exitDx=0;exitDy=0;" parent="1" source="U8-OKU-Ful8UIuGXWL6l-6" target="U8-OKU-Ful8UIuGXWL6l-10" edge="1">
          <mxGeometry relative="1" as="geometry">
            <mxPoint x="415" y="670" as="sourcePoint" />
          </mxGeometry>
        </mxCell>
        <mxCell id="U8-OKU-Ful8UIuGXWL6l-13" value="" style="edgeStyle=orthogonalEdgeStyle;rounded=0;orthogonalLoop=1;jettySize=auto;html=1;" parent="1" source="U8-OKU-Ful8UIuGXWL6l-10" target="U8-OKU-Ful8UIuGXWL6l-12" edge="1">
          <mxGeometry relative="1" as="geometry" />
        </mxCell>
        <mxCell id="U8-OKU-Ful8UIuGXWL6l-15" value="" style="edgeStyle=orthogonalEdgeStyle;rounded=0;orthogonalLoop=1;jettySize=auto;html=1;" parent="1" source="U8-OKU-Ful8UIuGXWL6l-10" target="U8-OKU-Ful8UIuGXWL6l-14" edge="1">
          <mxGeometry relative="1" as="geometry" />
        </mxCell>
        <mxCell id="U8-OKU-Ful8UIuGXWL6l-28" value="" style="edgeStyle=orthogonalEdgeStyle;rounded=0;orthogonalLoop=1;jettySize=auto;html=1;" parent="1" source="U8-OKU-Ful8UIuGXWL6l-10" target="U8-OKU-Ful8UIuGXWL6l-27" edge="1">
          <mxGeometry relative="1" as="geometry" />
        </mxCell>
        <mxCell id="U8-OKU-Ful8UIuGXWL6l-10" value="Login Page" style="ellipse;whiteSpace=wrap;html=1;" parent="1" vertex="1">
          <mxGeometry x="340" y="670" width="150" height="160" as="geometry" />
        </mxCell>
        <mxCell id="U8-OKU-Ful8UIuGXWL6l-19" value="" style="edgeStyle=orthogonalEdgeStyle;rounded=0;orthogonalLoop=1;jettySize=auto;html=1;" parent="1" source="U8-OKU-Ful8UIuGXWL6l-12" target="U8-OKU-Ful8UIuGXWL6l-18" edge="1">
          <mxGeometry relative="1" as="geometry" />
        </mxCell>
        <mxCell id="U8-OKU-Ful8UIuGXWL6l-12" value="Nhập email, password" style="whiteSpace=wrap;html=1;" parent="1" vertex="1">
          <mxGeometry x="320" y="870" width="190" height="40" as="geometry" />
        </mxCell>
        <mxCell id="U8-OKU-Ful8UIuGXWL6l-17" value="" style="edgeStyle=orthogonalEdgeStyle;rounded=0;orthogonalLoop=1;jettySize=auto;html=1;" parent="1" source="U8-OKU-Ful8UIuGXWL6l-14" target="U8-OKU-Ful8UIuGXWL6l-16" edge="1">
          <mxGeometry relative="1" as="geometry" />
        </mxCell>
        <mxCell id="U8-OKU-Ful8UIuGXWL6l-14" value="Chưa có tài khoản?" style="rhombus;whiteSpace=wrap;html=1;" parent="1" vertex="1">
          <mxGeometry x="570" y="710" width="270" height="80" as="geometry" />
        </mxCell>
        <mxCell id="U8-OKU-Ful8UIuGXWL6l-56" value="" style="edgeStyle=orthogonalEdgeStyle;rounded=0;orthogonalLoop=1;jettySize=auto;html=1;" parent="1" source="U8-OKU-Ful8UIuGXWL6l-16" target="U8-OKU-Ful8UIuGXWL6l-55" edge="1">
          <mxGeometry relative="1" as="geometry" />
        </mxCell>
        <mxCell id="U8-OKU-Ful8UIuGXWL6l-16" value="Signup Page" style="ellipse;whiteSpace=wrap;html=1;" parent="1" vertex="1">
          <mxGeometry x="910" y="710" width="130" height="80" as="geometry" />
        </mxCell>
        <mxCell id="U8-OKU-Ful8UIuGXWL6l-21" value="YES" style="edgeStyle=orthogonalEdgeStyle;rounded=0;orthogonalLoop=1;jettySize=auto;html=1;" parent="1" source="U8-OKU-Ful8UIuGXWL6l-18" target="U8-OKU-Ful8UIuGXWL6l-20" edge="1">
          <mxGeometry relative="1" as="geometry" />
        </mxCell>
        <mxCell id="U8-OKU-Ful8UIuGXWL6l-23" value="NO" style="edgeStyle=orthogonalEdgeStyle;rounded=0;orthogonalLoop=1;jettySize=auto;html=1;" parent="1" source="U8-OKU-Ful8UIuGXWL6l-18" target="U8-OKU-Ful8UIuGXWL6l-22" edge="1">
          <mxGeometry relative="1" as="geometry" />
        </mxCell>
        <mxCell id="U8-OKU-Ful8UIuGXWL6l-18" value="" style="rhombus;whiteSpace=wrap;html=1;" parent="1" vertex="1">
          <mxGeometry x="375" y="950" width="80" height="80" as="geometry" />
        </mxCell>
        <mxCell id="U8-OKU-Ful8UIuGXWL6l-20" value="Home Page" style="ellipse;whiteSpace=wrap;html=1;" parent="1" vertex="1">
          <mxGeometry x="340" y="1070" width="150" height="80" as="geometry" />
        </mxCell>
        <mxCell id="U8-OKU-Ful8UIuGXWL6l-22" value="&lt;div&gt;Email hoặc mật khẩu không đúng&lt;/div&gt;" style="ellipse;whiteSpace=wrap;html=1;" parent="1" vertex="1">
          <mxGeometry x="510" y="950" width="200" height="80" as="geometry" />
        </mxCell>
        <mxCell id="U8-OKU-Ful8UIuGXWL6l-24" value="" style="endArrow=classic;html=1;rounded=0;exitX=0.5;exitY=0;exitDx=0;exitDy=0;entryX=1;entryY=0.5;entryDx=0;entryDy=0;" parent="1" source="U8-OKU-Ful8UIuGXWL6l-22" target="U8-OKU-Ful8UIuGXWL6l-12" edge="1">
          <mxGeometry width="50" height="50" relative="1" as="geometry">
            <mxPoint x="380" y="870" as="sourcePoint" />
            <mxPoint x="430" y="820" as="targetPoint" />
            <Array as="points">
              <mxPoint x="610" y="890" />
            </Array>
          </mxGeometry>
        </mxCell>
        <mxCell id="U8-OKU-Ful8UIuGXWL6l-30" value="" style="edgeStyle=orthogonalEdgeStyle;rounded=0;orthogonalLoop=1;jettySize=auto;html=1;" parent="1" source="U8-OKU-Ful8UIuGXWL6l-27" target="U8-OKU-Ful8UIuGXWL6l-29" edge="1">
          <mxGeometry relative="1" as="geometry" />
        </mxCell>
        <mxCell id="U8-OKU-Ful8UIuGXWL6l-27" value="Quên mật khẩu?" style="rhombus;whiteSpace=wrap;html=1;" parent="1" vertex="1">
          <mxGeometry x="130" y="710" width="170" height="80" as="geometry" />
        </mxCell>
        <mxCell id="U8-OKU-Ful8UIuGXWL6l-32" value="" style="edgeStyle=orthogonalEdgeStyle;rounded=0;orthogonalLoop=1;jettySize=auto;html=1;" parent="1" source="U8-OKU-Ful8UIuGXWL6l-29" target="U8-OKU-Ful8UIuGXWL6l-31" edge="1">
          <mxGeometry relative="1" as="geometry" />
        </mxCell>
        <mxCell id="U8-OKU-Ful8UIuGXWL6l-29" value="Form khôi phục mật khẩu" style="ellipse;whiteSpace=wrap;html=1;" parent="1" vertex="1">
          <mxGeometry x="-90" y="710" width="170" height="80" as="geometry" />
        </mxCell>
        <mxCell id="U8-OKU-Ful8UIuGXWL6l-34" value="" style="edgeStyle=orthogonalEdgeStyle;rounded=0;orthogonalLoop=1;jettySize=auto;html=1;" parent="1" source="U8-OKU-Ful8UIuGXWL6l-31" target="U8-OKU-Ful8UIuGXWL6l-33" edge="1">
          <mxGeometry relative="1" as="geometry" />
        </mxCell>
        <mxCell id="U8-OKU-Ful8UIuGXWL6l-31" value="Nhập email" style="whiteSpace=wrap;html=1;" parent="1" vertex="1">
          <mxGeometry x="-90" y="840" width="170" height="40" as="geometry" />
        </mxCell>
        <mxCell id="U8-OKU-Ful8UIuGXWL6l-36" value="YES" style="edgeStyle=orthogonalEdgeStyle;rounded=0;orthogonalLoop=1;jettySize=auto;html=1;entryX=0.5;entryY=0;entryDx=0;entryDy=0;" parent="1" source="U8-OKU-Ful8UIuGXWL6l-33" target="U8-OKU-Ful8UIuGXWL6l-43" edge="1">
          <mxGeometry relative="1" as="geometry">
            <mxPoint x="-5" y="1040" as="targetPoint" />
          </mxGeometry>
        </mxCell>
        <mxCell id="U8-OKU-Ful8UIuGXWL6l-38" value="NO" style="edgeStyle=orthogonalEdgeStyle;rounded=0;orthogonalLoop=1;jettySize=auto;html=1;" parent="1" source="U8-OKU-Ful8UIuGXWL6l-33" target="U8-OKU-Ful8UIuGXWL6l-37" edge="1">
          <mxGeometry relative="1" as="geometry" />
        </mxCell>
        <mxCell id="U8-OKU-Ful8UIuGXWL6l-33" value="" style="rhombus;whiteSpace=wrap;html=1;" parent="1" vertex="1">
          <mxGeometry x="-45" y="920" width="80" height="80" as="geometry" />
        </mxCell>
        <mxCell id="U8-OKU-Ful8UIuGXWL6l-37" value="Email chưa có tài khoản," style="ellipse;whiteSpace=wrap;html=1;" parent="1" vertex="1">
          <mxGeometry x="-310" y="920" width="220" height="80" as="geometry" />
        </mxCell>
        <mxCell id="U8-OKU-Ful8UIuGXWL6l-47" value="" style="edgeStyle=orthogonalEdgeStyle;rounded=0;orthogonalLoop=1;jettySize=auto;html=1;" parent="1" source="U8-OKU-Ful8UIuGXWL6l-43" target="U8-OKU-Ful8UIuGXWL6l-46" edge="1">
          <mxGeometry relative="1" as="geometry" />
        </mxCell>
        <mxCell id="U8-OKU-Ful8UIuGXWL6l-43" value="Nhập mật khẩu mới,&amp;nbsp;&lt;div&gt;xác nhận mật khẩu mới&lt;/div&gt;" style="whiteSpace=wrap;html=1;" parent="1" vertex="1">
          <mxGeometry x="-90" y="1040" width="170" height="40" as="geometry" />
        </mxCell>
        <mxCell id="U8-OKU-Ful8UIuGXWL6l-49" value="YES" style="edgeStyle=orthogonalEdgeStyle;rounded=0;orthogonalLoop=1;jettySize=auto;html=1;" parent="1" source="U8-OKU-Ful8UIuGXWL6l-46" target="U8-OKU-Ful8UIuGXWL6l-48" edge="1">
          <mxGeometry relative="1" as="geometry" />
        </mxCell>
        <mxCell id="U8-OKU-Ful8UIuGXWL6l-51" value="NO" style="edgeStyle=orthogonalEdgeStyle;rounded=0;orthogonalLoop=1;jettySize=auto;html=1;" parent="1" source="U8-OKU-Ful8UIuGXWL6l-46" target="U8-OKU-Ful8UIuGXWL6l-50" edge="1">
          <mxGeometry relative="1" as="geometry" />
        </mxCell>
        <mxCell id="U8-OKU-Ful8UIuGXWL6l-46" value="" style="rhombus;whiteSpace=wrap;html=1;" parent="1" vertex="1">
          <mxGeometry x="-45" y="1120" width="80" height="80" as="geometry" />
        </mxCell>
        <mxCell id="U8-OKU-Ful8UIuGXWL6l-48" value="Đổi mật khẩu thành công!" style="ellipse;whiteSpace=wrap;html=1;" parent="1" vertex="1">
          <mxGeometry x="-82.5" y="1240" width="155" height="80" as="geometry" />
        </mxCell>
        <mxCell id="U8-OKU-Ful8UIuGXWL6l-50" value="Mật khẩu không trùng khớp!" style="ellipse;whiteSpace=wrap;html=1;" parent="1" vertex="1">
          <mxGeometry x="-292.5" y="1120" width="185" height="80" as="geometry" />
        </mxCell>
        <mxCell id="U8-OKU-Ful8UIuGXWL6l-52" value="" style="endArrow=classic;html=1;rounded=0;exitX=0.5;exitY=0;exitDx=0;exitDy=0;entryX=0;entryY=0.5;entryDx=0;entryDy=0;" parent="1" source="U8-OKU-Ful8UIuGXWL6l-50" target="U8-OKU-Ful8UIuGXWL6l-43" edge="1">
          <mxGeometry width="50" height="50" relative="1" as="geometry">
            <mxPoint x="160" y="970" as="sourcePoint" />
            <mxPoint x="-160" y="1060" as="targetPoint" />
            <Array as="points">
              <mxPoint x="-200" y="1060" />
            </Array>
          </mxGeometry>
        </mxCell>
        <mxCell id="U8-OKU-Ful8UIuGXWL6l-54" value="" style="endArrow=classic;html=1;rounded=0;exitX=0;exitY=0.5;exitDx=0;exitDy=0;entryX=0;entryY=0;entryDx=0;entryDy=0;" parent="1" source="U8-OKU-Ful8UIuGXWL6l-48" target="U8-OKU-Ful8UIuGXWL6l-10" edge="1">
          <mxGeometry width="50" height="50" relative="1" as="geometry">
            <mxPoint x="160" y="970" as="sourcePoint" />
            <mxPoint x="210" y="920" as="targetPoint" />
            <Array as="points">
              <mxPoint x="-400" y="1280" />
              <mxPoint x="-400" y="690" />
            </Array>
          </mxGeometry>
        </mxCell>
        <mxCell id="U8-OKU-Ful8UIuGXWL6l-58" value="" style="edgeStyle=orthogonalEdgeStyle;rounded=0;orthogonalLoop=1;jettySize=auto;html=1;" parent="1" source="U8-OKU-Ful8UIuGXWL6l-55" target="U8-OKU-Ful8UIuGXWL6l-57" edge="1">
          <mxGeometry relative="1" as="geometry" />
        </mxCell>
        <mxCell id="U8-OKU-Ful8UIuGXWL6l-55" value="Nhập email, sđt, mật khẩu, xác nhận mật khẩu" style="whiteSpace=wrap;html=1;" parent="1" vertex="1">
          <mxGeometry x="810" y="865" width="330" height="50" as="geometry" />
        </mxCell>
        <mxCell id="U8-OKU-Ful8UIuGXWL6l-60" value="YES" style="edgeStyle=orthogonalEdgeStyle;rounded=0;orthogonalLoop=1;jettySize=auto;html=1;" parent="1" source="U8-OKU-Ful8UIuGXWL6l-57" target="U8-OKU-Ful8UIuGXWL6l-59" edge="1">
          <mxGeometry relative="1" as="geometry" />
        </mxCell>
        <mxCell id="U8-OKU-Ful8UIuGXWL6l-62" value="NO" style="edgeStyle=orthogonalEdgeStyle;rounded=0;orthogonalLoop=1;jettySize=auto;html=1;" parent="1" source="U8-OKU-Ful8UIuGXWL6l-57" target="U8-OKU-Ful8UIuGXWL6l-61" edge="1">
          <mxGeometry relative="1" as="geometry" />
        </mxCell>
        <mxCell id="U8-OKU-Ful8UIuGXWL6l-57" value="" style="rhombus;whiteSpace=wrap;html=1;" parent="1" vertex="1">
          <mxGeometry x="935" y="970" width="80" height="80" as="geometry" />
        </mxCell>
        <mxCell id="U8-OKU-Ful8UIuGXWL6l-59" value="Tạo tài khoản thành công" style="ellipse;whiteSpace=wrap;html=1;" parent="1" vertex="1">
          <mxGeometry x="887.5" y="1110" width="175" height="80" as="geometry" />
        </mxCell>
        <mxCell id="U8-OKU-Ful8UIuGXWL6l-61" value="Email đã tồn tại,&amp;nbsp;&lt;div&gt;mật khẩu không trùng khớp&lt;/div&gt;" style="ellipse;whiteSpace=wrap;html=1;" parent="1" vertex="1">
          <mxGeometry x="1095" y="970" width="185" height="80" as="geometry" />
        </mxCell>
        <mxCell id="U8-OKU-Ful8UIuGXWL6l-63" value="" style="endArrow=classic;html=1;rounded=0;exitX=0.5;exitY=0;exitDx=0;exitDy=0;entryX=1;entryY=0.5;entryDx=0;entryDy=0;" parent="1" source="U8-OKU-Ful8UIuGXWL6l-61" target="U8-OKU-Ful8UIuGXWL6l-55" edge="1">
          <mxGeometry width="50" height="50" relative="1" as="geometry">
            <mxPoint x="660" y="850" as="sourcePoint" />
            <mxPoint x="710" y="800" as="targetPoint" />
            <Array as="points">
              <mxPoint x="1188" y="890" />
            </Array>
          </mxGeometry>
        </mxCell>
        <mxCell id="U8-OKU-Ful8UIuGXWL6l-64" value="" style="endArrow=classic;html=1;rounded=0;entryX=1;entryY=0;entryDx=0;entryDy=0;exitX=1;exitY=0.5;exitDx=0;exitDy=0;" parent="1" source="U8-OKU-Ful8UIuGXWL6l-59" target="U8-OKU-Ful8UIuGXWL6l-10" edge="1">
          <mxGeometry width="50" height="50" relative="1" as="geometry">
            <mxPoint x="620" y="960" as="sourcePoint" />
            <mxPoint x="670" y="910" as="targetPoint" />
            <Array as="points">
              <mxPoint x="1320" y="1150" />
              <mxPoint x="1320" y="693" />
            </Array>
          </mxGeometry>
        </mxCell>
      </root>
    </mxGraphModel>
  </diagram>
  <diagram id="dRfufOfiVFUdwL0PMpln" name="Page-3">
    <mxGraphModel dx="2223" dy="810" grid="1" gridSize="10" guides="1" tooltips="1" connect="1" arrows="1" fold="1" page="0" pageScale="1" pageWidth="850" pageHeight="1100" math="0" shadow="0">
      <root>
        <mxCell id="0" />
        <mxCell id="1" parent="0" />
        <mxCell id="cKrLBuX785VcKooQafiG-1" value="" style="edgeStyle=orthogonalEdgeStyle;rounded=0;orthogonalLoop=1;jettySize=auto;html=1;entryX=0.5;entryY=0;entryDx=0;entryDy=0;" edge="1" parent="1" source="cKrLBuX785VcKooQafiG-2" target="Wyz8q4qytgdn46dO-nlA-1">
          <mxGeometry relative="1" as="geometry">
            <mxPoint x="664" y="110" as="targetPoint" />
          </mxGeometry>
        </mxCell>
        <mxCell id="cKrLBuX785VcKooQafiG-2" value="" style="ellipse;fillColor=strokeColor;html=1;" vertex="1" parent="1">
          <mxGeometry x="684" y="50" width="30" height="30" as="geometry" />
        </mxCell>
        <mxCell id="Wyz8q4qytgdn46dO-nlA-3" value="" style="edgeStyle=orthogonalEdgeStyle;rounded=0;orthogonalLoop=1;jettySize=auto;html=1;" edge="1" parent="1" source="Wyz8q4qytgdn46dO-nlA-1" target="Wyz8q4qytgdn46dO-nlA-2">
          <mxGeometry relative="1" as="geometry" />
        </mxCell>
        <mxCell id="Wyz8q4qytgdn46dO-nlA-1" value="Login Page" style="ellipse;whiteSpace=wrap;html=1;" vertex="1" parent="1">
          <mxGeometry x="624" y="120" width="150" height="80" as="geometry" />
        </mxCell>
        <mxCell id="Wyz8q4qytgdn46dO-nlA-5" value="" style="edgeStyle=orthogonalEdgeStyle;rounded=0;orthogonalLoop=1;jettySize=auto;html=1;" edge="1" parent="1" source="Wyz8q4qytgdn46dO-nlA-2" target="Wyz8q4qytgdn46dO-nlA-7">
          <mxGeometry relative="1" as="geometry">
            <mxPoint x="664" y="360" as="targetPoint" />
          </mxGeometry>
        </mxCell>
        <mxCell id="Wyz8q4qytgdn46dO-nlA-2" value="Nhập email, mật khẩu" style="whiteSpace=wrap;html=1;" vertex="1" parent="1">
          <mxGeometry x="631.5" y="230" width="135" height="60" as="geometry" />
        </mxCell>
        <mxCell id="Wyz8q4qytgdn46dO-nlA-141" value="" style="edgeStyle=orthogonalEdgeStyle;rounded=0;orthogonalLoop=1;jettySize=auto;html=1;" edge="1" parent="1" source="Wyz8q4qytgdn46dO-nlA-7" target="Wyz8q4qytgdn46dO-nlA-140">
          <mxGeometry relative="1" as="geometry" />
        </mxCell>
        <mxCell id="Wyz8q4qytgdn46dO-nlA-342" value="" style="edgeStyle=orthogonalEdgeStyle;rounded=0;orthogonalLoop=1;jettySize=auto;html=1;" edge="1" parent="1" source="Wyz8q4qytgdn46dO-nlA-7" target="Wyz8q4qytgdn46dO-nlA-341">
          <mxGeometry relative="1" as="geometry" />
        </mxCell>
        <mxCell id="Wyz8q4qytgdn46dO-nlA-7" value="Dashboard" style="ellipse;whiteSpace=wrap;html=1;" vertex="1" parent="1">
          <mxGeometry x="604" y="360" width="190" height="80" as="geometry" />
        </mxCell>
        <mxCell id="Wyz8q4qytgdn46dO-nlA-110" value="" style="edgeStyle=orthogonalEdgeStyle;rounded=0;orthogonalLoop=1;jettySize=auto;html=1;" edge="1" parent="1" source="Wyz8q4qytgdn46dO-nlA-10" target="Wyz8q4qytgdn46dO-nlA-109">
          <mxGeometry relative="1" as="geometry" />
        </mxCell>
        <mxCell id="Wyz8q4qytgdn46dO-nlA-10" value="Chọn Quản lý người dùng" style="whiteSpace=wrap;html=1;" vertex="1" parent="1">
          <mxGeometry x="-220" y="520" width="210" height="60" as="geometry" />
        </mxCell>
        <mxCell id="Wyz8q4qytgdn46dO-nlA-112" value="" style="edgeStyle=orthogonalEdgeStyle;rounded=0;orthogonalLoop=1;jettySize=auto;html=1;" edge="1" parent="1" source="Wyz8q4qytgdn46dO-nlA-109" target="Wyz8q4qytgdn46dO-nlA-111">
          <mxGeometry relative="1" as="geometry" />
        </mxCell>
        <mxCell id="Wyz8q4qytgdn46dO-nlA-116" value="" style="edgeStyle=orthogonalEdgeStyle;rounded=0;orthogonalLoop=1;jettySize=auto;html=1;" edge="1" parent="1" source="Wyz8q4qytgdn46dO-nlA-109" target="Wyz8q4qytgdn46dO-nlA-115">
          <mxGeometry relative="1" as="geometry" />
        </mxCell>
        <mxCell id="Wyz8q4qytgdn46dO-nlA-134" value="" style="edgeStyle=orthogonalEdgeStyle;rounded=0;orthogonalLoop=1;jettySize=auto;html=1;" edge="1" parent="1" source="Wyz8q4qytgdn46dO-nlA-109" target="Wyz8q4qytgdn46dO-nlA-133">
          <mxGeometry relative="1" as="geometry" />
        </mxCell>
        <mxCell id="Wyz8q4qytgdn46dO-nlA-109" value="Hiển thị danh sách người dùng" style="ellipse;whiteSpace=wrap;html=1;" vertex="1" parent="1">
          <mxGeometry x="-217.5" y="640" width="205" height="80" as="geometry" />
        </mxCell>
        <mxCell id="Wyz8q4qytgdn46dO-nlA-114" value="" style="edgeStyle=orthogonalEdgeStyle;rounded=0;orthogonalLoop=1;jettySize=auto;html=1;" edge="1" parent="1" source="Wyz8q4qytgdn46dO-nlA-111" target="Wyz8q4qytgdn46dO-nlA-113">
          <mxGeometry relative="1" as="geometry" />
        </mxCell>
        <mxCell id="Wyz8q4qytgdn46dO-nlA-111" value="Chọn Process" style="whiteSpace=wrap;html=1;" vertex="1" parent="1">
          <mxGeometry x="-380" y="760" width="120" height="60" as="geometry" />
        </mxCell>
        <mxCell id="Wyz8q4qytgdn46dO-nlA-113" value="Hiển thị Tiến trình học tập của người dùng" style="ellipse;whiteSpace=wrap;html=1;" vertex="1" parent="1">
          <mxGeometry x="-410" y="880" width="180" height="80" as="geometry" />
        </mxCell>
        <mxCell id="Wyz8q4qytgdn46dO-nlA-120" value="" style="edgeStyle=orthogonalEdgeStyle;rounded=0;orthogonalLoop=1;jettySize=auto;html=1;" edge="1" parent="1" source="Wyz8q4qytgdn46dO-nlA-115" target="Wyz8q4qytgdn46dO-nlA-119">
          <mxGeometry relative="1" as="geometry" />
        </mxCell>
        <mxCell id="Wyz8q4qytgdn46dO-nlA-115" value="Chọn Chỉnh sửa" style="whiteSpace=wrap;html=1;" vertex="1" parent="1">
          <mxGeometry x="-175" y="760" width="120" height="60" as="geometry" />
        </mxCell>
        <mxCell id="Wyz8q4qytgdn46dO-nlA-122" value="" style="edgeStyle=orthogonalEdgeStyle;rounded=0;orthogonalLoop=1;jettySize=auto;html=1;" edge="1" parent="1" source="Wyz8q4qytgdn46dO-nlA-119" target="Wyz8q4qytgdn46dO-nlA-121">
          <mxGeometry relative="1" as="geometry" />
        </mxCell>
        <mxCell id="Wyz8q4qytgdn46dO-nlA-119" value="Hiển thị thông tin của người dùng" style="ellipse;whiteSpace=wrap;html=1;" vertex="1" parent="1">
          <mxGeometry x="-187.5" y="880" width="145" height="80" as="geometry" />
        </mxCell>
        <mxCell id="Wyz8q4qytgdn46dO-nlA-124" value="" style="edgeStyle=orthogonalEdgeStyle;rounded=0;orthogonalLoop=1;jettySize=auto;html=1;" edge="1" parent="1" source="Wyz8q4qytgdn46dO-nlA-121" target="Wyz8q4qytgdn46dO-nlA-123">
          <mxGeometry relative="1" as="geometry" />
        </mxCell>
        <mxCell id="Wyz8q4qytgdn46dO-nlA-121" value="Thay đổi thông tin người dùng" style="whiteSpace=wrap;html=1;" vertex="1" parent="1">
          <mxGeometry x="-175" y="1000" width="120" height="60" as="geometry" />
        </mxCell>
        <mxCell id="Wyz8q4qytgdn46dO-nlA-126" value="YES" style="edgeStyle=orthogonalEdgeStyle;rounded=0;orthogonalLoop=1;jettySize=auto;html=1;" edge="1" parent="1" source="Wyz8q4qytgdn46dO-nlA-123" target="Wyz8q4qytgdn46dO-nlA-125">
          <mxGeometry relative="1" as="geometry" />
        </mxCell>
        <mxCell id="Wyz8q4qytgdn46dO-nlA-123" value="Lưu" style="rhombus;whiteSpace=wrap;html=1;" vertex="1" parent="1">
          <mxGeometry x="-155" y="1110" width="80" height="80" as="geometry" />
        </mxCell>
        <mxCell id="Wyz8q4qytgdn46dO-nlA-125" value="Hiển thị thông tin mới của người dùng" style="ellipse;whiteSpace=wrap;html=1;" vertex="1" parent="1">
          <mxGeometry x="-192.5" y="1240" width="155" height="80" as="geometry" />
        </mxCell>
        <mxCell id="Wyz8q4qytgdn46dO-nlA-136" value="" style="edgeStyle=orthogonalEdgeStyle;rounded=0;orthogonalLoop=1;jettySize=auto;html=1;" edge="1" parent="1" source="Wyz8q4qytgdn46dO-nlA-133" target="Wyz8q4qytgdn46dO-nlA-135">
          <mxGeometry relative="1" as="geometry" />
        </mxCell>
        <mxCell id="Wyz8q4qytgdn46dO-nlA-133" value="Chọn Mở/ Khóa" style="whiteSpace=wrap;html=1;" vertex="1" parent="1">
          <mxGeometry x="30" y="760" width="120" height="60" as="geometry" />
        </mxCell>
        <mxCell id="Wyz8q4qytgdn46dO-nlA-138" value="YES" style="edgeStyle=orthogonalEdgeStyle;rounded=0;orthogonalLoop=1;jettySize=auto;html=1;" edge="1" parent="1" source="Wyz8q4qytgdn46dO-nlA-135" target="Wyz8q4qytgdn46dO-nlA-137">
          <mxGeometry relative="1" as="geometry" />
        </mxCell>
        <mxCell id="Wyz8q4qytgdn46dO-nlA-135" value="" style="rhombus;whiteSpace=wrap;html=1;" vertex="1" parent="1">
          <mxGeometry x="50" y="880" width="80" height="80" as="geometry" />
        </mxCell>
        <mxCell id="Wyz8q4qytgdn46dO-nlA-137" value="Hiển thị tài khoản&amp;nbsp;&lt;div&gt;đã được mở/ khóa&lt;/div&gt;" style="ellipse;whiteSpace=wrap;html=1;" vertex="1" parent="1">
          <mxGeometry x="15" y="1000" width="150" height="80" as="geometry" />
        </mxCell>
        <mxCell id="Wyz8q4qytgdn46dO-nlA-144" value="" style="edgeStyle=orthogonalEdgeStyle;rounded=0;orthogonalLoop=1;jettySize=auto;html=1;" edge="1" parent="1" source="Wyz8q4qytgdn46dO-nlA-140" target="Wyz8q4qytgdn46dO-nlA-143">
          <mxGeometry relative="1" as="geometry" />
        </mxCell>
        <mxCell id="Wyz8q4qytgdn46dO-nlA-140" value="Chọn Quản lý Khóa học" style="whiteSpace=wrap;html=1;" vertex="1" parent="1">
          <mxGeometry x="596.5" y="520" width="205" height="60" as="geometry" />
        </mxCell>
        <mxCell id="Wyz8q4qytgdn46dO-nlA-142" value="" style="endArrow=classic;html=1;rounded=0;entryX=0.5;entryY=0;entryDx=0;entryDy=0;exitX=0;exitY=0.5;exitDx=0;exitDy=0;" edge="1" parent="1" source="Wyz8q4qytgdn46dO-nlA-7" target="Wyz8q4qytgdn46dO-nlA-10">
          <mxGeometry width="50" height="50" relative="1" as="geometry">
            <mxPoint x="560" y="970" as="sourcePoint" />
            <mxPoint x="610" y="920" as="targetPoint" />
            <Array as="points">
              <mxPoint x="-115" y="400" />
            </Array>
          </mxGeometry>
        </mxCell>
        <mxCell id="Wyz8q4qytgdn46dO-nlA-146" value="" style="edgeStyle=orthogonalEdgeStyle;rounded=0;orthogonalLoop=1;jettySize=auto;html=1;" edge="1" parent="1" source="Wyz8q4qytgdn46dO-nlA-143" target="Wyz8q4qytgdn46dO-nlA-145">
          <mxGeometry relative="1" as="geometry" />
        </mxCell>
        <mxCell id="Wyz8q4qytgdn46dO-nlA-161" value="" style="edgeStyle=orthogonalEdgeStyle;rounded=0;orthogonalLoop=1;jettySize=auto;html=1;" edge="1" parent="1" source="Wyz8q4qytgdn46dO-nlA-143" target="Wyz8q4qytgdn46dO-nlA-160">
          <mxGeometry relative="1" as="geometry" />
        </mxCell>
        <mxCell id="Wyz8q4qytgdn46dO-nlA-165" value="" style="edgeStyle=orthogonalEdgeStyle;rounded=0;orthogonalLoop=1;jettySize=auto;html=1;" edge="1" parent="1" source="Wyz8q4qytgdn46dO-nlA-143" target="Wyz8q4qytgdn46dO-nlA-164">
          <mxGeometry relative="1" as="geometry" />
        </mxCell>
        <mxCell id="Wyz8q4qytgdn46dO-nlA-197" value="" style="edgeStyle=orthogonalEdgeStyle;rounded=0;orthogonalLoop=1;jettySize=auto;html=1;exitX=0.5;exitY=1;exitDx=0;exitDy=0;" edge="1" parent="1" source="Wyz8q4qytgdn46dO-nlA-143" target="Wyz8q4qytgdn46dO-nlA-196">
          <mxGeometry relative="1" as="geometry" />
        </mxCell>
        <mxCell id="Wyz8q4qytgdn46dO-nlA-143" value="Hiển thị danh sách khóa học" style="ellipse;whiteSpace=wrap;html=1;" vertex="1" parent="1">
          <mxGeometry x="596.5" y="640" width="205" height="80" as="geometry" />
        </mxCell>
        <mxCell id="Wyz8q4qytgdn46dO-nlA-148" value="" style="edgeStyle=orthogonalEdgeStyle;rounded=0;orthogonalLoop=1;jettySize=auto;html=1;" edge="1" parent="1" source="Wyz8q4qytgdn46dO-nlA-145" target="Wyz8q4qytgdn46dO-nlA-147">
          <mxGeometry relative="1" as="geometry" />
        </mxCell>
        <mxCell id="Wyz8q4qytgdn46dO-nlA-145" value="Chọn Thêm khóa học" style="whiteSpace=wrap;html=1;" vertex="1" parent="1">
          <mxGeometry x="250" y="760" width="140" height="60" as="geometry" />
        </mxCell>
        <mxCell id="Wyz8q4qytgdn46dO-nlA-150" value="" style="edgeStyle=orthogonalEdgeStyle;rounded=0;orthogonalLoop=1;jettySize=auto;html=1;" edge="1" parent="1" source="Wyz8q4qytgdn46dO-nlA-147" target="Wyz8q4qytgdn46dO-nlA-149">
          <mxGeometry relative="1" as="geometry" />
        </mxCell>
        <mxCell id="Wyz8q4qytgdn46dO-nlA-147" value="Hiển thị Form thêm khóa học&lt;div&gt;Tên khóa học, Cấp độ, Ngôn ngữ&lt;/div&gt;" style="ellipse;whiteSpace=wrap;html=1;" vertex="1" parent="1">
          <mxGeometry x="225" y="890" width="190" height="80" as="geometry" />
        </mxCell>
        <mxCell id="Wyz8q4qytgdn46dO-nlA-152" value="" style="edgeStyle=orthogonalEdgeStyle;rounded=0;orthogonalLoop=1;jettySize=auto;html=1;" edge="1" parent="1" source="Wyz8q4qytgdn46dO-nlA-149" target="Wyz8q4qytgdn46dO-nlA-151">
          <mxGeometry relative="1" as="geometry" />
        </mxCell>
        <mxCell id="Wyz8q4qytgdn46dO-nlA-149" value="Điền thông tin khóa học mới" style="whiteSpace=wrap;html=1;" vertex="1" parent="1">
          <mxGeometry x="260" y="1000" width="120" height="60" as="geometry" />
        </mxCell>
        <mxCell id="Wyz8q4qytgdn46dO-nlA-154" value="YES" style="edgeStyle=orthogonalEdgeStyle;rounded=0;orthogonalLoop=1;jettySize=auto;html=1;" edge="1" parent="1" source="Wyz8q4qytgdn46dO-nlA-151" target="Wyz8q4qytgdn46dO-nlA-153">
          <mxGeometry relative="1" as="geometry" />
        </mxCell>
        <mxCell id="Wyz8q4qytgdn46dO-nlA-156" value="NO" style="edgeStyle=orthogonalEdgeStyle;rounded=0;orthogonalLoop=1;jettySize=auto;html=1;" edge="1" parent="1" source="Wyz8q4qytgdn46dO-nlA-151" target="Wyz8q4qytgdn46dO-nlA-155">
          <mxGeometry relative="1" as="geometry" />
        </mxCell>
        <mxCell id="Wyz8q4qytgdn46dO-nlA-151" value="Lưu" style="rhombus;whiteSpace=wrap;html=1;" vertex="1" parent="1">
          <mxGeometry x="280" y="1110" width="80" height="80" as="geometry" />
        </mxCell>
        <mxCell id="Wyz8q4qytgdn46dO-nlA-153" value="Thêm khóa học mới thành công!" style="ellipse;whiteSpace=wrap;html=1;" vertex="1" parent="1">
          <mxGeometry x="220" y="1240" width="200" height="80" as="geometry" />
        </mxCell>
        <mxCell id="Wyz8q4qytgdn46dO-nlA-155" value="Thông báo!&lt;div&gt;Chưa điền đầy đủ thông tin!&lt;/div&gt;" style="ellipse;whiteSpace=wrap;html=1;" vertex="1" parent="1">
          <mxGeometry x="415" y="1110" width="115" height="80" as="geometry" />
        </mxCell>
        <mxCell id="Wyz8q4qytgdn46dO-nlA-157" value="" style="endArrow=classic;html=1;rounded=0;exitX=0.5;exitY=0;exitDx=0;exitDy=0;entryX=1;entryY=0.5;entryDx=0;entryDy=0;" edge="1" parent="1" source="Wyz8q4qytgdn46dO-nlA-155" target="Wyz8q4qytgdn46dO-nlA-149">
          <mxGeometry width="50" height="50" relative="1" as="geometry">
            <mxPoint x="340" y="1140" as="sourcePoint" />
            <mxPoint x="390" y="1090" as="targetPoint" />
            <Array as="points">
              <mxPoint x="473" y="1030" />
            </Array>
          </mxGeometry>
        </mxCell>
        <mxCell id="Wyz8q4qytgdn46dO-nlA-159" value="" style="endArrow=classic;html=1;rounded=0;exitX=0;exitY=0.5;exitDx=0;exitDy=0;entryX=0;entryY=0;entryDx=0;entryDy=0;" edge="1" parent="1" source="Wyz8q4qytgdn46dO-nlA-153" target="Wyz8q4qytgdn46dO-nlA-143">
          <mxGeometry width="50" height="50" relative="1" as="geometry">
            <mxPoint x="290" y="1120" as="sourcePoint" />
            <mxPoint x="340" y="1070" as="targetPoint" />
            <Array as="points">
              <mxPoint x="200" y="1280" />
              <mxPoint x="200" y="650" />
            </Array>
          </mxGeometry>
        </mxCell>
        <mxCell id="Wyz8q4qytgdn46dO-nlA-177" value="" style="edgeStyle=orthogonalEdgeStyle;rounded=0;orthogonalLoop=1;jettySize=auto;html=1;" edge="1" parent="1" source="Wyz8q4qytgdn46dO-nlA-160" target="Wyz8q4qytgdn46dO-nlA-176">
          <mxGeometry relative="1" as="geometry" />
        </mxCell>
        <mxCell id="Wyz8q4qytgdn46dO-nlA-160" value="Chọn Khóa học" style="whiteSpace=wrap;html=1;" vertex="1" parent="1">
          <mxGeometry x="1260" y="760" width="120" height="60" as="geometry" />
        </mxCell>
        <mxCell id="Wyz8q4qytgdn46dO-nlA-169" value="" style="edgeStyle=orthogonalEdgeStyle;rounded=0;orthogonalLoop=1;jettySize=auto;html=1;" edge="1" parent="1" source="Wyz8q4qytgdn46dO-nlA-164" target="Wyz8q4qytgdn46dO-nlA-168">
          <mxGeometry relative="1" as="geometry" />
        </mxCell>
        <mxCell id="Wyz8q4qytgdn46dO-nlA-164" value="Chọn Button&amp;nbsp;&lt;div&gt;Chỉnh sửa khóa học&lt;/div&gt;" style="whiteSpace=wrap;html=1;" vertex="1" parent="1">
          <mxGeometry x="584.5" y="760" width="120" height="60" as="geometry" />
        </mxCell>
        <mxCell id="Wyz8q4qytgdn46dO-nlA-171" value="" style="edgeStyle=orthogonalEdgeStyle;rounded=0;orthogonalLoop=1;jettySize=auto;html=1;" edge="1" parent="1" source="Wyz8q4qytgdn46dO-nlA-168" target="Wyz8q4qytgdn46dO-nlA-170">
          <mxGeometry relative="1" as="geometry" />
        </mxCell>
        <mxCell id="Wyz8q4qytgdn46dO-nlA-168" value="Hiển thị các thông tin về khóa học" style="ellipse;whiteSpace=wrap;html=1;" vertex="1" parent="1">
          <mxGeometry x="515" y="880" width="259" height="80" as="geometry" />
        </mxCell>
        <mxCell id="Wyz8q4qytgdn46dO-nlA-173" value="" style="edgeStyle=orthogonalEdgeStyle;rounded=0;orthogonalLoop=1;jettySize=auto;html=1;" edge="1" parent="1" source="Wyz8q4qytgdn46dO-nlA-170" target="Wyz8q4qytgdn46dO-nlA-172">
          <mxGeometry relative="1" as="geometry" />
        </mxCell>
        <mxCell id="Wyz8q4qytgdn46dO-nlA-170" value="Chỉnh sửa thông tin" style="whiteSpace=wrap;html=1;" vertex="1" parent="1">
          <mxGeometry x="584.5" y="1000" width="120" height="60" as="geometry" />
        </mxCell>
        <mxCell id="Wyz8q4qytgdn46dO-nlA-175" value="YES" style="edgeStyle=orthogonalEdgeStyle;rounded=0;orthogonalLoop=1;jettySize=auto;html=1;" edge="1" parent="1" source="Wyz8q4qytgdn46dO-nlA-172" target="Wyz8q4qytgdn46dO-nlA-174">
          <mxGeometry relative="1" as="geometry" />
        </mxCell>
        <mxCell id="Wyz8q4qytgdn46dO-nlA-172" value="Lưu" style="rhombus;whiteSpace=wrap;html=1;" vertex="1" parent="1">
          <mxGeometry x="604.5" y="1110" width="80" height="80" as="geometry" />
        </mxCell>
        <mxCell id="Wyz8q4qytgdn46dO-nlA-227" value="" style="edgeStyle=orthogonalEdgeStyle;rounded=0;orthogonalLoop=1;jettySize=auto;html=1;" edge="1" parent="1" source="Wyz8q4qytgdn46dO-nlA-174">
          <mxGeometry relative="1" as="geometry">
            <mxPoint x="1040" y="800" as="targetPoint" />
          </mxGeometry>
        </mxCell>
        <mxCell id="Wyz8q4qytgdn46dO-nlA-174" value="Hiển thị thông tin mới của khóa học" style="ellipse;whiteSpace=wrap;html=1;" vertex="1" parent="1">
          <mxGeometry x="562" y="1240" width="165" height="80" as="geometry" />
        </mxCell>
        <mxCell id="Wyz8q4qytgdn46dO-nlA-179" value="" style="edgeStyle=orthogonalEdgeStyle;rounded=0;orthogonalLoop=1;jettySize=auto;html=1;" edge="1" parent="1" source="Wyz8q4qytgdn46dO-nlA-176" target="Wyz8q4qytgdn46dO-nlA-178">
          <mxGeometry relative="1" as="geometry" />
        </mxCell>
        <mxCell id="Wyz8q4qytgdn46dO-nlA-195" value="" style="edgeStyle=orthogonalEdgeStyle;rounded=0;orthogonalLoop=1;jettySize=auto;html=1;" edge="1" parent="1" source="Wyz8q4qytgdn46dO-nlA-176" target="Wyz8q4qytgdn46dO-nlA-194">
          <mxGeometry relative="1" as="geometry" />
        </mxCell>
        <mxCell id="Wyz8q4qytgdn46dO-nlA-217" value="" style="edgeStyle=orthogonalEdgeStyle;rounded=0;orthogonalLoop=1;jettySize=auto;html=1;exitX=0.5;exitY=1;exitDx=0;exitDy=0;" edge="1" parent="1" source="Wyz8q4qytgdn46dO-nlA-176" target="Wyz8q4qytgdn46dO-nlA-216">
          <mxGeometry relative="1" as="geometry" />
        </mxCell>
        <mxCell id="Wyz8q4qytgdn46dO-nlA-231" value="" style="edgeStyle=orthogonalEdgeStyle;rounded=0;orthogonalLoop=1;jettySize=auto;html=1;exitX=0.5;exitY=1;exitDx=0;exitDy=0;" edge="1" parent="1" source="Wyz8q4qytgdn46dO-nlA-176" target="Wyz8q4qytgdn46dO-nlA-230">
          <mxGeometry relative="1" as="geometry" />
        </mxCell>
        <mxCell id="Wyz8q4qytgdn46dO-nlA-176" value="Hiển thị danh sách bài học" style="ellipse;whiteSpace=wrap;html=1;" vertex="1" parent="1">
          <mxGeometry x="1205" y="880" width="230" height="80" as="geometry" />
        </mxCell>
        <mxCell id="Wyz8q4qytgdn46dO-nlA-181" value="" style="edgeStyle=orthogonalEdgeStyle;rounded=0;orthogonalLoop=1;jettySize=auto;html=1;" edge="1" parent="1" source="Wyz8q4qytgdn46dO-nlA-178" target="Wyz8q4qytgdn46dO-nlA-180">
          <mxGeometry relative="1" as="geometry" />
        </mxCell>
        <mxCell id="Wyz8q4qytgdn46dO-nlA-178" value="Chọn Thêm Bài học" style="whiteSpace=wrap;html=1;" vertex="1" parent="1">
          <mxGeometry x="1140" y="1000" width="120" height="60" as="geometry" />
        </mxCell>
        <mxCell id="Wyz8q4qytgdn46dO-nlA-190" value="" style="edgeStyle=orthogonalEdgeStyle;rounded=0;orthogonalLoop=1;jettySize=auto;html=1;" edge="1" parent="1" source="Wyz8q4qytgdn46dO-nlA-180" target="Wyz8q4qytgdn46dO-nlA-189">
          <mxGeometry relative="1" as="geometry" />
        </mxCell>
        <mxCell id="Wyz8q4qytgdn46dO-nlA-180" value="Hiển thị Form thêm Bài học&lt;br&gt;Tên bài học" style="ellipse;whiteSpace=wrap;html=1;" vertex="1" parent="1">
          <mxGeometry x="1095" y="1120" width="210" height="80" as="geometry" />
        </mxCell>
        <mxCell id="Wyz8q4qytgdn46dO-nlA-185" value="YES" style="edgeStyle=orthogonalEdgeStyle;rounded=0;orthogonalLoop=1;jettySize=auto;html=1;" edge="1" parent="1" source="Wyz8q4qytgdn46dO-nlA-182" target="Wyz8q4qytgdn46dO-nlA-184">
          <mxGeometry relative="1" as="geometry" />
        </mxCell>
        <mxCell id="Wyz8q4qytgdn46dO-nlA-187" value="NO" style="edgeStyle=orthogonalEdgeStyle;rounded=0;orthogonalLoop=1;jettySize=auto;html=1;" edge="1" parent="1" source="Wyz8q4qytgdn46dO-nlA-182" target="Wyz8q4qytgdn46dO-nlA-186">
          <mxGeometry relative="1" as="geometry" />
        </mxCell>
        <mxCell id="Wyz8q4qytgdn46dO-nlA-182" value="Lưu" style="rhombus;whiteSpace=wrap;html=1;" vertex="1" parent="1">
          <mxGeometry x="1160" y="1360" width="80" height="80" as="geometry" />
        </mxCell>
        <mxCell id="Wyz8q4qytgdn46dO-nlA-184" value="Thêm Bài học mới thành công!" style="ellipse;whiteSpace=wrap;html=1;" vertex="1" parent="1">
          <mxGeometry x="1110" y="1480" width="180" height="80" as="geometry" />
        </mxCell>
        <mxCell id="Wyz8q4qytgdn46dO-nlA-186" value="Thông báo!&lt;div&gt;Chưa điền đầy đủ thông tin!&lt;/div&gt;" style="ellipse;whiteSpace=wrap;html=1;" vertex="1" parent="1">
          <mxGeometry x="1290" y="1360" width="120" height="80" as="geometry" />
        </mxCell>
        <mxCell id="Wyz8q4qytgdn46dO-nlA-191" value="" style="edgeStyle=orthogonalEdgeStyle;rounded=0;orthogonalLoop=1;jettySize=auto;html=1;" edge="1" parent="1" source="Wyz8q4qytgdn46dO-nlA-189" target="Wyz8q4qytgdn46dO-nlA-182">
          <mxGeometry relative="1" as="geometry" />
        </mxCell>
        <mxCell id="Wyz8q4qytgdn46dO-nlA-189" value="Điền thông tin&amp;nbsp;&lt;div&gt;Bài học mới&lt;/div&gt;" style="whiteSpace=wrap;html=1;" vertex="1" parent="1">
          <mxGeometry x="1140" y="1240" width="120" height="60" as="geometry" />
        </mxCell>
        <mxCell id="Wyz8q4qytgdn46dO-nlA-192" value="" style="endArrow=classic;html=1;rounded=0;exitX=0.5;exitY=0;exitDx=0;exitDy=0;entryX=1;entryY=0.5;entryDx=0;entryDy=0;" edge="1" parent="1" source="Wyz8q4qytgdn46dO-nlA-186" target="Wyz8q4qytgdn46dO-nlA-189">
          <mxGeometry width="50" height="50" relative="1" as="geometry">
            <mxPoint x="1030" y="1120" as="sourcePoint" />
            <mxPoint x="1080" y="1070" as="targetPoint" />
            <Array as="points">
              <mxPoint x="1350" y="1270" />
            </Array>
          </mxGeometry>
        </mxCell>
        <mxCell id="Wyz8q4qytgdn46dO-nlA-193" value="" style="endArrow=classic;html=1;rounded=0;exitX=0;exitY=0.5;exitDx=0;exitDy=0;entryX=0;entryY=0.5;entryDx=0;entryDy=0;" edge="1" parent="1" source="Wyz8q4qytgdn46dO-nlA-184" target="Wyz8q4qytgdn46dO-nlA-176">
          <mxGeometry width="50" height="50" relative="1" as="geometry">
            <mxPoint x="1030" y="1120" as="sourcePoint" />
            <mxPoint x="1080" y="1070" as="targetPoint" />
            <Array as="points">
              <mxPoint x="1080" y="1520" />
              <mxPoint x="1080" y="920" />
            </Array>
          </mxGeometry>
        </mxCell>
        <mxCell id="Wyz8q4qytgdn46dO-nlA-209" value="" style="edgeStyle=orthogonalEdgeStyle;rounded=0;orthogonalLoop=1;jettySize=auto;html=1;" edge="1" parent="1" source="Wyz8q4qytgdn46dO-nlA-194" target="Wyz8q4qytgdn46dO-nlA-208">
          <mxGeometry relative="1" as="geometry" />
        </mxCell>
        <mxCell id="Wyz8q4qytgdn46dO-nlA-194" value="Chọn Chỉnh sửa" style="whiteSpace=wrap;html=1;" vertex="1" parent="1">
          <mxGeometry x="1435" y="1000" width="120" height="60" as="geometry" />
        </mxCell>
        <mxCell id="Wyz8q4qytgdn46dO-nlA-201" value="" style="edgeStyle=orthogonalEdgeStyle;rounded=0;orthogonalLoop=1;jettySize=auto;html=1;" edge="1" parent="1" source="Wyz8q4qytgdn46dO-nlA-196" target="Wyz8q4qytgdn46dO-nlA-200">
          <mxGeometry relative="1" as="geometry" />
        </mxCell>
        <mxCell id="Wyz8q4qytgdn46dO-nlA-196" value="Chọn Button&amp;nbsp;&lt;div&gt;Xóa khóa học&lt;/div&gt;" style="whiteSpace=wrap;html=1;" vertex="1" parent="1">
          <mxGeometry x="850" y="760" width="120" height="60" as="geometry" />
        </mxCell>
        <mxCell id="Wyz8q4qytgdn46dO-nlA-203" value="" style="edgeStyle=orthogonalEdgeStyle;rounded=0;orthogonalLoop=1;jettySize=auto;html=1;" edge="1" parent="1" source="Wyz8q4qytgdn46dO-nlA-200" target="Wyz8q4qytgdn46dO-nlA-202">
          <mxGeometry relative="1" as="geometry" />
        </mxCell>
        <mxCell id="Wyz8q4qytgdn46dO-nlA-200" value="Hiển thị Thông báo xác nhận xóa khóa học" style="ellipse;whiteSpace=wrap;html=1;" vertex="1" parent="1">
          <mxGeometry x="825" y="880" width="170" height="80" as="geometry" />
        </mxCell>
        <mxCell id="Wyz8q4qytgdn46dO-nlA-205" value="" style="edgeStyle=orthogonalEdgeStyle;rounded=0;orthogonalLoop=1;jettySize=auto;html=1;" edge="1" parent="1" source="Wyz8q4qytgdn46dO-nlA-202" target="Wyz8q4qytgdn46dO-nlA-204">
          <mxGeometry relative="1" as="geometry" />
        </mxCell>
        <mxCell id="Wyz8q4qytgdn46dO-nlA-202" value="Bấm&amp;nbsp;&lt;div&gt;Xác nhận&lt;/div&gt;" style="rhombus;whiteSpace=wrap;html=1;" vertex="1" parent="1">
          <mxGeometry x="870" y="1000" width="80" height="80" as="geometry" />
        </mxCell>
        <mxCell id="Wyz8q4qytgdn46dO-nlA-207" value="" style="edgeStyle=orthogonalEdgeStyle;rounded=0;orthogonalLoop=1;jettySize=auto;html=1;entryX=1;entryY=0;entryDx=0;entryDy=0;" edge="1" parent="1" source="Wyz8q4qytgdn46dO-nlA-204" target="Wyz8q4qytgdn46dO-nlA-143">
          <mxGeometry relative="1" as="geometry">
            <mxPoint x="1140" y="1160" as="targetPoint" />
            <Array as="points">
              <mxPoint x="1040" y="1160" />
              <mxPoint x="1040" y="652" />
            </Array>
          </mxGeometry>
        </mxCell>
        <mxCell id="Wyz8q4qytgdn46dO-nlA-204" value="Hiển thị Đã xóa Thành công!" style="ellipse;whiteSpace=wrap;html=1;" vertex="1" parent="1">
          <mxGeometry x="805" y="1120" width="210" height="80" as="geometry" />
        </mxCell>
        <mxCell id="Wyz8q4qytgdn46dO-nlA-215" value="" style="edgeStyle=orthogonalEdgeStyle;rounded=0;orthogonalLoop=1;jettySize=auto;html=1;" edge="1" parent="1" source="Wyz8q4qytgdn46dO-nlA-208" target="Wyz8q4qytgdn46dO-nlA-211">
          <mxGeometry relative="1" as="geometry" />
        </mxCell>
        <mxCell id="Wyz8q4qytgdn46dO-nlA-208" value="Hiển thị thông tin Bài học" style="ellipse;whiteSpace=wrap;html=1;" vertex="1" parent="1">
          <mxGeometry x="1402.5" y="1110" width="185" height="80" as="geometry" />
        </mxCell>
        <mxCell id="Wyz8q4qytgdn46dO-nlA-210" value="" style="edgeStyle=orthogonalEdgeStyle;rounded=0;orthogonalLoop=1;jettySize=auto;html=1;" edge="1" parent="1" source="Wyz8q4qytgdn46dO-nlA-211" target="Wyz8q4qytgdn46dO-nlA-213">
          <mxGeometry relative="1" as="geometry" />
        </mxCell>
        <mxCell id="Wyz8q4qytgdn46dO-nlA-211" value="Chỉnh sửa thông tin" style="whiteSpace=wrap;html=1;" vertex="1" parent="1">
          <mxGeometry x="1435" y="1230" width="120" height="60" as="geometry" />
        </mxCell>
        <mxCell id="Wyz8q4qytgdn46dO-nlA-212" value="YES" style="edgeStyle=orthogonalEdgeStyle;rounded=0;orthogonalLoop=1;jettySize=auto;html=1;" edge="1" parent="1" source="Wyz8q4qytgdn46dO-nlA-213" target="Wyz8q4qytgdn46dO-nlA-214">
          <mxGeometry relative="1" as="geometry" />
        </mxCell>
        <mxCell id="Wyz8q4qytgdn46dO-nlA-213" value="Lưu" style="rhombus;whiteSpace=wrap;html=1;" vertex="1" parent="1">
          <mxGeometry x="1455" y="1340" width="80" height="80" as="geometry" />
        </mxCell>
        <mxCell id="Wyz8q4qytgdn46dO-nlA-229" value="" style="edgeStyle=orthogonalEdgeStyle;rounded=0;orthogonalLoop=1;jettySize=auto;html=1;" edge="1" parent="1" source="Wyz8q4qytgdn46dO-nlA-214">
          <mxGeometry relative="1" as="geometry">
            <mxPoint x="1840" y="1150" as="targetPoint" />
          </mxGeometry>
        </mxCell>
        <mxCell id="Wyz8q4qytgdn46dO-nlA-214" value="Hiển thị thông tin mới của bài học" style="ellipse;whiteSpace=wrap;html=1;" vertex="1" parent="1">
          <mxGeometry x="1421.25" y="1470" width="147.5" height="80" as="geometry" />
        </mxCell>
        <mxCell id="Wyz8q4qytgdn46dO-nlA-223" value="" style="edgeStyle=orthogonalEdgeStyle;rounded=0;orthogonalLoop=1;jettySize=auto;html=1;" edge="1" parent="1" source="Wyz8q4qytgdn46dO-nlA-216" target="Wyz8q4qytgdn46dO-nlA-219">
          <mxGeometry relative="1" as="geometry" />
        </mxCell>
        <mxCell id="Wyz8q4qytgdn46dO-nlA-216" value="Chọn Xóa" style="whiteSpace=wrap;html=1;" vertex="1" parent="1">
          <mxGeometry x="1640" y="1000" width="120" height="60" as="geometry" />
        </mxCell>
        <mxCell id="Wyz8q4qytgdn46dO-nlA-218" value="" style="edgeStyle=orthogonalEdgeStyle;rounded=0;orthogonalLoop=1;jettySize=auto;html=1;" edge="1" parent="1" source="Wyz8q4qytgdn46dO-nlA-219" target="Wyz8q4qytgdn46dO-nlA-221">
          <mxGeometry relative="1" as="geometry" />
        </mxCell>
        <mxCell id="Wyz8q4qytgdn46dO-nlA-219" value="Hiển thị Thông báo xác nhận xóa bài học" style="ellipse;whiteSpace=wrap;html=1;" vertex="1" parent="1">
          <mxGeometry x="1615" y="1110" width="170" height="80" as="geometry" />
        </mxCell>
        <mxCell id="Wyz8q4qytgdn46dO-nlA-220" value="" style="edgeStyle=orthogonalEdgeStyle;rounded=0;orthogonalLoop=1;jettySize=auto;html=1;" edge="1" parent="1" source="Wyz8q4qytgdn46dO-nlA-221" target="Wyz8q4qytgdn46dO-nlA-222">
          <mxGeometry relative="1" as="geometry" />
        </mxCell>
        <mxCell id="Wyz8q4qytgdn46dO-nlA-221" value="Bấm&amp;nbsp;&lt;div&gt;Xác nhận&lt;/div&gt;" style="rhombus;whiteSpace=wrap;html=1;" vertex="1" parent="1">
          <mxGeometry x="1660" y="1230" width="80" height="80" as="geometry" />
        </mxCell>
        <mxCell id="Wyz8q4qytgdn46dO-nlA-225" value="" style="edgeStyle=orthogonalEdgeStyle;rounded=0;orthogonalLoop=1;jettySize=auto;html=1;entryX=1;entryY=0.5;entryDx=0;entryDy=0;" edge="1" parent="1" source="Wyz8q4qytgdn46dO-nlA-222" target="Wyz8q4qytgdn46dO-nlA-176">
          <mxGeometry relative="1" as="geometry">
            <mxPoint x="1930" y="1390" as="targetPoint" />
            <Array as="points">
              <mxPoint x="1840" y="1390" />
              <mxPoint x="1840" y="920" />
            </Array>
          </mxGeometry>
        </mxCell>
        <mxCell id="Wyz8q4qytgdn46dO-nlA-222" value="Hiển thị Đã xóa Thành công!" style="ellipse;whiteSpace=wrap;html=1;" vertex="1" parent="1">
          <mxGeometry x="1595" y="1350" width="210" height="80" as="geometry" />
        </mxCell>
        <mxCell id="Wyz8q4qytgdn46dO-nlA-233" value="" style="edgeStyle=orthogonalEdgeStyle;rounded=0;orthogonalLoop=1;jettySize=auto;html=1;" edge="1" parent="1" source="Wyz8q4qytgdn46dO-nlA-230" target="Wyz8q4qytgdn46dO-nlA-232">
          <mxGeometry relative="1" as="geometry" />
        </mxCell>
        <mxCell id="Wyz8q4qytgdn46dO-nlA-230" value="Chọn Bài học" style="whiteSpace=wrap;html=1;" vertex="1" parent="1">
          <mxGeometry x="2226.25" y="1000" width="120" height="60" as="geometry" />
        </mxCell>
        <mxCell id="Wyz8q4qytgdn46dO-nlA-232" value="Hiển thị Danh sách Bài tập" style="ellipse;whiteSpace=wrap;html=1;" vertex="1" parent="1">
          <mxGeometry x="2196.25" y="1090" width="180" height="80" as="geometry" />
        </mxCell>
        <mxCell id="Wyz8q4qytgdn46dO-nlA-262" value="" style="edgeStyle=orthogonalEdgeStyle;rounded=0;orthogonalLoop=1;jettySize=auto;html=1;" edge="1" parent="1" target="Wyz8q4qytgdn46dO-nlA-266">
          <mxGeometry relative="1" as="geometry">
            <mxPoint x="2130" y="1200" as="sourcePoint" />
          </mxGeometry>
        </mxCell>
        <mxCell id="Wyz8q4qytgdn46dO-nlA-263" value="" style="edgeStyle=orthogonalEdgeStyle;rounded=0;orthogonalLoop=1;jettySize=auto;html=1;" edge="1" parent="1" target="Wyz8q4qytgdn46dO-nlA-277">
          <mxGeometry relative="1" as="geometry">
            <mxPoint x="2130" y="1200" as="sourcePoint" />
          </mxGeometry>
        </mxCell>
        <mxCell id="Wyz8q4qytgdn46dO-nlA-264" value="" style="edgeStyle=orthogonalEdgeStyle;rounded=0;orthogonalLoop=1;jettySize=auto;html=1;exitX=0.5;exitY=1;exitDx=0;exitDy=0;" edge="1" parent="1" target="Wyz8q4qytgdn46dO-nlA-286">
          <mxGeometry relative="1" as="geometry">
            <mxPoint x="2130" y="1200" as="sourcePoint" />
          </mxGeometry>
        </mxCell>
        <mxCell id="Wyz8q4qytgdn46dO-nlA-265" value="" style="edgeStyle=orthogonalEdgeStyle;rounded=0;orthogonalLoop=1;jettySize=auto;html=1;" edge="1" parent="1" source="Wyz8q4qytgdn46dO-nlA-266">
          <mxGeometry relative="1" as="geometry">
            <mxPoint x="2010" y="1360" as="targetPoint" />
          </mxGeometry>
        </mxCell>
        <mxCell id="Wyz8q4qytgdn46dO-nlA-266" value="Chọn Thêm Bài tập" style="whiteSpace=wrap;html=1;" vertex="1" parent="1">
          <mxGeometry x="1950" y="1240" width="120" height="60" as="geometry" />
        </mxCell>
        <mxCell id="Wyz8q4qytgdn46dO-nlA-267" value="" style="edgeStyle=orthogonalEdgeStyle;rounded=0;orthogonalLoop=1;jettySize=auto;html=1;" edge="1" parent="1" target="Wyz8q4qytgdn46dO-nlA-274">
          <mxGeometry relative="1" as="geometry">
            <mxPoint x="2010" y="1440" as="sourcePoint" />
          </mxGeometry>
        </mxCell>
        <mxCell id="Wyz8q4qytgdn46dO-nlA-268" value="Hiển thị Form thêm Bài tập&lt;br&gt;Tên Bài tập, Dạng bài tập" style="ellipse;whiteSpace=wrap;html=1;" vertex="1" parent="1">
          <mxGeometry x="1905" y="1360" width="210" height="80" as="geometry" />
        </mxCell>
        <mxCell id="Wyz8q4qytgdn46dO-nlA-269" value="YES" style="edgeStyle=orthogonalEdgeStyle;rounded=0;orthogonalLoop=1;jettySize=auto;html=1;" edge="1" parent="1" source="Wyz8q4qytgdn46dO-nlA-271">
          <mxGeometry relative="1" as="geometry">
            <mxPoint x="2010" y="1720" as="targetPoint" />
          </mxGeometry>
        </mxCell>
        <mxCell id="Wyz8q4qytgdn46dO-nlA-270" value="NO" style="edgeStyle=orthogonalEdgeStyle;rounded=0;orthogonalLoop=1;jettySize=auto;html=1;" edge="1" parent="1" source="Wyz8q4qytgdn46dO-nlA-271" target="Wyz8q4qytgdn46dO-nlA-272">
          <mxGeometry relative="1" as="geometry" />
        </mxCell>
        <mxCell id="Wyz8q4qytgdn46dO-nlA-271" value="Lưu" style="rhombus;whiteSpace=wrap;html=1;" vertex="1" parent="1">
          <mxGeometry x="1970" y="1600" width="80" height="80" as="geometry" />
        </mxCell>
        <mxCell id="Wyz8q4qytgdn46dO-nlA-272" value="Thông báo!&lt;div&gt;Chưa điền đầy đủ thông tin!&lt;/div&gt;" style="ellipse;whiteSpace=wrap;html=1;" vertex="1" parent="1">
          <mxGeometry x="2100" y="1600" width="120" height="80" as="geometry" />
        </mxCell>
        <mxCell id="Wyz8q4qytgdn46dO-nlA-273" value="" style="edgeStyle=orthogonalEdgeStyle;rounded=0;orthogonalLoop=1;jettySize=auto;html=1;" edge="1" parent="1" source="Wyz8q4qytgdn46dO-nlA-274" target="Wyz8q4qytgdn46dO-nlA-271">
          <mxGeometry relative="1" as="geometry" />
        </mxCell>
        <mxCell id="Wyz8q4qytgdn46dO-nlA-274" value="Điền thông tin&amp;nbsp;&lt;div&gt;Bài tập mới&lt;/div&gt;" style="whiteSpace=wrap;html=1;" vertex="1" parent="1">
          <mxGeometry x="1950" y="1480" width="120" height="60" as="geometry" />
        </mxCell>
        <mxCell id="Wyz8q4qytgdn46dO-nlA-275" value="" style="endArrow=classic;html=1;rounded=0;exitX=0.5;exitY=0;exitDx=0;exitDy=0;entryX=1;entryY=0.5;entryDx=0;entryDy=0;" edge="1" parent="1" source="Wyz8q4qytgdn46dO-nlA-272" target="Wyz8q4qytgdn46dO-nlA-274">
          <mxGeometry width="50" height="50" relative="1" as="geometry">
            <mxPoint x="1840" y="1360" as="sourcePoint" />
            <mxPoint x="1890" y="1310" as="targetPoint" />
            <Array as="points">
              <mxPoint x="2160" y="1510" />
            </Array>
          </mxGeometry>
        </mxCell>
        <mxCell id="Wyz8q4qytgdn46dO-nlA-276" value="" style="edgeStyle=orthogonalEdgeStyle;rounded=0;orthogonalLoop=1;jettySize=auto;html=1;" edge="1" parent="1" source="Wyz8q4qytgdn46dO-nlA-277" target="Wyz8q4qytgdn46dO-nlA-279">
          <mxGeometry relative="1" as="geometry" />
        </mxCell>
        <mxCell id="Wyz8q4qytgdn46dO-nlA-277" value="Chọn Chỉnh sửa" style="whiteSpace=wrap;html=1;" vertex="1" parent="1">
          <mxGeometry x="2245" y="1240" width="120" height="60" as="geometry" />
        </mxCell>
        <mxCell id="Wyz8q4qytgdn46dO-nlA-278" value="" style="edgeStyle=orthogonalEdgeStyle;rounded=0;orthogonalLoop=1;jettySize=auto;html=1;" edge="1" parent="1" source="Wyz8q4qytgdn46dO-nlA-279" target="Wyz8q4qytgdn46dO-nlA-281">
          <mxGeometry relative="1" as="geometry" />
        </mxCell>
        <mxCell id="Wyz8q4qytgdn46dO-nlA-279" value="Hiển thị thông tin Bài tập" style="ellipse;whiteSpace=wrap;html=1;" vertex="1" parent="1">
          <mxGeometry x="2212.5" y="1350" width="185" height="80" as="geometry" />
        </mxCell>
        <mxCell id="Wyz8q4qytgdn46dO-nlA-280" value="" style="edgeStyle=orthogonalEdgeStyle;rounded=0;orthogonalLoop=1;jettySize=auto;html=1;" edge="1" parent="1" source="Wyz8q4qytgdn46dO-nlA-281" target="Wyz8q4qytgdn46dO-nlA-283">
          <mxGeometry relative="1" as="geometry" />
        </mxCell>
        <mxCell id="Wyz8q4qytgdn46dO-nlA-281" value="Chỉnh sửa thông tin" style="whiteSpace=wrap;html=1;" vertex="1" parent="1">
          <mxGeometry x="2245" y="1470" width="120" height="60" as="geometry" />
        </mxCell>
        <mxCell id="Wyz8q4qytgdn46dO-nlA-282" value="YES" style="edgeStyle=orthogonalEdgeStyle;rounded=0;orthogonalLoop=1;jettySize=auto;html=1;" edge="1" parent="1" source="Wyz8q4qytgdn46dO-nlA-283" target="Wyz8q4qytgdn46dO-nlA-284">
          <mxGeometry relative="1" as="geometry" />
        </mxCell>
        <mxCell id="Wyz8q4qytgdn46dO-nlA-283" value="Lưu" style="rhombus;whiteSpace=wrap;html=1;" vertex="1" parent="1">
          <mxGeometry x="2265" y="1580" width="80" height="80" as="geometry" />
        </mxCell>
        <mxCell id="Wyz8q4qytgdn46dO-nlA-301" value="" style="edgeStyle=orthogonalEdgeStyle;rounded=0;orthogonalLoop=1;jettySize=auto;html=1;" edge="1" parent="1" source="Wyz8q4qytgdn46dO-nlA-284">
          <mxGeometry relative="1" as="geometry">
            <mxPoint x="2640" y="1390" as="targetPoint" />
          </mxGeometry>
        </mxCell>
        <mxCell id="Wyz8q4qytgdn46dO-nlA-284" value="Hiển thị thông tin mới của bài tập" style="ellipse;whiteSpace=wrap;html=1;" vertex="1" parent="1">
          <mxGeometry x="2231.25" y="1710" width="147.5" height="80" as="geometry" />
        </mxCell>
        <mxCell id="Wyz8q4qytgdn46dO-nlA-285" value="" style="edgeStyle=orthogonalEdgeStyle;rounded=0;orthogonalLoop=1;jettySize=auto;html=1;" edge="1" parent="1" source="Wyz8q4qytgdn46dO-nlA-286" target="Wyz8q4qytgdn46dO-nlA-288">
          <mxGeometry relative="1" as="geometry" />
        </mxCell>
        <mxCell id="Wyz8q4qytgdn46dO-nlA-286" value="Chọn Xóa" style="whiteSpace=wrap;html=1;" vertex="1" parent="1">
          <mxGeometry x="2450" y="1240" width="120" height="60" as="geometry" />
        </mxCell>
        <mxCell id="Wyz8q4qytgdn46dO-nlA-287" value="" style="edgeStyle=orthogonalEdgeStyle;rounded=0;orthogonalLoop=1;jettySize=auto;html=1;" edge="1" parent="1" source="Wyz8q4qytgdn46dO-nlA-288" target="Wyz8q4qytgdn46dO-nlA-290">
          <mxGeometry relative="1" as="geometry" />
        </mxCell>
        <mxCell id="Wyz8q4qytgdn46dO-nlA-288" value="Hiển thị Thông báo xác nhận xóa bài tập" style="ellipse;whiteSpace=wrap;html=1;" vertex="1" parent="1">
          <mxGeometry x="2425" y="1350" width="170" height="80" as="geometry" />
        </mxCell>
        <mxCell id="Wyz8q4qytgdn46dO-nlA-289" value="" style="edgeStyle=orthogonalEdgeStyle;rounded=0;orthogonalLoop=1;jettySize=auto;html=1;" edge="1" parent="1" source="Wyz8q4qytgdn46dO-nlA-290" target="Wyz8q4qytgdn46dO-nlA-291">
          <mxGeometry relative="1" as="geometry" />
        </mxCell>
        <mxCell id="Wyz8q4qytgdn46dO-nlA-290" value="Bấm&amp;nbsp;&lt;div&gt;Xác nhận&lt;/div&gt;" style="rhombus;whiteSpace=wrap;html=1;" vertex="1" parent="1">
          <mxGeometry x="2470" y="1470" width="80" height="80" as="geometry" />
        </mxCell>
        <mxCell id="Wyz8q4qytgdn46dO-nlA-299" value="" style="edgeStyle=orthogonalEdgeStyle;rounded=0;orthogonalLoop=1;jettySize=auto;html=1;entryX=1;entryY=0.5;entryDx=0;entryDy=0;" edge="1" parent="1" source="Wyz8q4qytgdn46dO-nlA-291" target="Wyz8q4qytgdn46dO-nlA-232">
          <mxGeometry relative="1" as="geometry">
            <mxPoint x="2740" y="1630" as="targetPoint" />
            <Array as="points">
              <mxPoint x="2640" y="1630" />
              <mxPoint x="2640" y="1130" />
            </Array>
          </mxGeometry>
        </mxCell>
        <mxCell id="Wyz8q4qytgdn46dO-nlA-291" value="Hiển thị Đã xóa Thành công!" style="ellipse;whiteSpace=wrap;html=1;" vertex="1" parent="1">
          <mxGeometry x="2405" y="1590" width="210" height="80" as="geometry" />
        </mxCell>
        <mxCell id="Wyz8q4qytgdn46dO-nlA-294" value="" style="endArrow=none;html=1;rounded=0;exitX=0.5;exitY=1;exitDx=0;exitDy=0;" edge="1" parent="1" source="Wyz8q4qytgdn46dO-nlA-232">
          <mxGeometry width="50" height="50" relative="1" as="geometry">
            <mxPoint x="2090" y="1020" as="sourcePoint" />
            <mxPoint x="2286" y="1200" as="targetPoint" />
          </mxGeometry>
        </mxCell>
        <mxCell id="Wyz8q4qytgdn46dO-nlA-297" value="" style="edgeStyle=orthogonalEdgeStyle;rounded=0;orthogonalLoop=1;jettySize=auto;html=1;entryX=0;entryY=0.5;entryDx=0;entryDy=0;" edge="1" parent="1" source="Wyz8q4qytgdn46dO-nlA-295" target="Wyz8q4qytgdn46dO-nlA-232">
          <mxGeometry relative="1" as="geometry">
            <mxPoint x="1810" y="1760" as="targetPoint" />
            <Array as="points">
              <mxPoint x="1880" y="1760" />
              <mxPoint x="1880" y="1130" />
            </Array>
          </mxGeometry>
        </mxCell>
        <mxCell id="Wyz8q4qytgdn46dO-nlA-295" value="Thêm Bài tập mới thành công!" style="ellipse;whiteSpace=wrap;html=1;" vertex="1" parent="1">
          <mxGeometry x="1920" y="1720" width="180" height="80" as="geometry" />
        </mxCell>
        <mxCell id="Wyz8q4qytgdn46dO-nlA-302" value="" style="edgeStyle=orthogonalEdgeStyle;rounded=0;orthogonalLoop=1;jettySize=auto;html=1;" edge="1" source="Wyz8q4qytgdn46dO-nlA-303" target="Wyz8q4qytgdn46dO-nlA-304" parent="1">
          <mxGeometry relative="1" as="geometry" />
        </mxCell>
        <mxCell id="Wyz8q4qytgdn46dO-nlA-303" value="Chọn Bài tập" style="whiteSpace=wrap;html=1;" vertex="1" parent="1">
          <mxGeometry x="3026.16" y="1240" width="120" height="60" as="geometry" />
        </mxCell>
        <mxCell id="Wyz8q4qytgdn46dO-nlA-304" value="Hiển thị Danh sách Câu hỏi" style="ellipse;whiteSpace=wrap;html=1;" vertex="1" parent="1">
          <mxGeometry x="2996.16" y="1330" width="180" height="80" as="geometry" />
        </mxCell>
        <mxCell id="Wyz8q4qytgdn46dO-nlA-305" value="" style="edgeStyle=orthogonalEdgeStyle;rounded=0;orthogonalLoop=1;jettySize=auto;html=1;" edge="1" target="Wyz8q4qytgdn46dO-nlA-309" parent="1">
          <mxGeometry relative="1" as="geometry">
            <mxPoint x="2929.91" y="1440" as="sourcePoint" />
          </mxGeometry>
        </mxCell>
        <mxCell id="Wyz8q4qytgdn46dO-nlA-306" value="" style="edgeStyle=orthogonalEdgeStyle;rounded=0;orthogonalLoop=1;jettySize=auto;html=1;" edge="1" target="Wyz8q4qytgdn46dO-nlA-320" parent="1">
          <mxGeometry relative="1" as="geometry">
            <mxPoint x="2929.91" y="1440" as="sourcePoint" />
          </mxGeometry>
        </mxCell>
        <mxCell id="Wyz8q4qytgdn46dO-nlA-307" value="" style="edgeStyle=orthogonalEdgeStyle;rounded=0;orthogonalLoop=1;jettySize=auto;html=1;exitX=0.5;exitY=1;exitDx=0;exitDy=0;" edge="1" target="Wyz8q4qytgdn46dO-nlA-330" parent="1">
          <mxGeometry relative="1" as="geometry">
            <mxPoint x="2929.91" y="1440" as="sourcePoint" />
          </mxGeometry>
        </mxCell>
        <mxCell id="Wyz8q4qytgdn46dO-nlA-308" value="" style="edgeStyle=orthogonalEdgeStyle;rounded=0;orthogonalLoop=1;jettySize=auto;html=1;" edge="1" source="Wyz8q4qytgdn46dO-nlA-309" parent="1">
          <mxGeometry relative="1" as="geometry">
            <mxPoint x="2809.91" y="1600" as="targetPoint" />
          </mxGeometry>
        </mxCell>
        <mxCell id="Wyz8q4qytgdn46dO-nlA-309" value="Chọn Thêm Câu hỏi" style="whiteSpace=wrap;html=1;" vertex="1" parent="1">
          <mxGeometry x="2749.91" y="1480" width="120" height="60" as="geometry" />
        </mxCell>
        <mxCell id="Wyz8q4qytgdn46dO-nlA-310" value="" style="edgeStyle=orthogonalEdgeStyle;rounded=0;orthogonalLoop=1;jettySize=auto;html=1;" edge="1" target="Wyz8q4qytgdn46dO-nlA-317" parent="1">
          <mxGeometry relative="1" as="geometry">
            <mxPoint x="2809.91" y="1680" as="sourcePoint" />
          </mxGeometry>
        </mxCell>
        <mxCell id="Wyz8q4qytgdn46dO-nlA-311" value="Hiển thị Form thêm Câu hỏi&amp;nbsp;&lt;div&gt;theo từng dạng bài tập&lt;br&gt;&lt;/div&gt;&lt;div&gt;(Video, chọn đáp án, điền)&lt;/div&gt;" style="ellipse;whiteSpace=wrap;html=1;" vertex="1" parent="1">
          <mxGeometry x="2704.91" y="1600" width="210" height="80" as="geometry" />
        </mxCell>
        <mxCell id="Wyz8q4qytgdn46dO-nlA-312" value="YES" style="edgeStyle=orthogonalEdgeStyle;rounded=0;orthogonalLoop=1;jettySize=auto;html=1;" edge="1" source="Wyz8q4qytgdn46dO-nlA-314" parent="1">
          <mxGeometry relative="1" as="geometry">
            <mxPoint x="2809.91" y="1960" as="targetPoint" />
          </mxGeometry>
        </mxCell>
        <mxCell id="Wyz8q4qytgdn46dO-nlA-313" value="NO" style="edgeStyle=orthogonalEdgeStyle;rounded=0;orthogonalLoop=1;jettySize=auto;html=1;" edge="1" source="Wyz8q4qytgdn46dO-nlA-314" target="Wyz8q4qytgdn46dO-nlA-315" parent="1">
          <mxGeometry relative="1" as="geometry" />
        </mxCell>
        <mxCell id="Wyz8q4qytgdn46dO-nlA-314" value="Lưu" style="rhombus;whiteSpace=wrap;html=1;" vertex="1" parent="1">
          <mxGeometry x="2769.91" y="1840" width="80" height="80" as="geometry" />
        </mxCell>
        <mxCell id="Wyz8q4qytgdn46dO-nlA-315" value="Thông báo!&lt;div&gt;Chưa điền đầy đủ thông tin!&lt;/div&gt;" style="ellipse;whiteSpace=wrap;html=1;" vertex="1" parent="1">
          <mxGeometry x="2899.91" y="1840" width="120" height="80" as="geometry" />
        </mxCell>
        <mxCell id="Wyz8q4qytgdn46dO-nlA-316" value="" style="edgeStyle=orthogonalEdgeStyle;rounded=0;orthogonalLoop=1;jettySize=auto;html=1;" edge="1" source="Wyz8q4qytgdn46dO-nlA-317" target="Wyz8q4qytgdn46dO-nlA-314" parent="1">
          <mxGeometry relative="1" as="geometry" />
        </mxCell>
        <mxCell id="Wyz8q4qytgdn46dO-nlA-317" value="Điền thông tin&amp;nbsp;&lt;div&gt;Câu hỏi mới&lt;/div&gt;" style="whiteSpace=wrap;html=1;" vertex="1" parent="1">
          <mxGeometry x="2749.91" y="1720" width="120" height="60" as="geometry" />
        </mxCell>
        <mxCell id="Wyz8q4qytgdn46dO-nlA-318" value="" style="endArrow=classic;html=1;rounded=0;exitX=0.5;exitY=0;exitDx=0;exitDy=0;entryX=1;entryY=0.5;entryDx=0;entryDy=0;" edge="1" source="Wyz8q4qytgdn46dO-nlA-315" target="Wyz8q4qytgdn46dO-nlA-317" parent="1">
          <mxGeometry width="50" height="50" relative="1" as="geometry">
            <mxPoint x="2639.91" y="1600" as="sourcePoint" />
            <mxPoint x="2689.91" y="1550" as="targetPoint" />
            <Array as="points">
              <mxPoint x="2959.91" y="1750" />
            </Array>
          </mxGeometry>
        </mxCell>
        <mxCell id="Wyz8q4qytgdn46dO-nlA-319" value="" style="edgeStyle=orthogonalEdgeStyle;rounded=0;orthogonalLoop=1;jettySize=auto;html=1;" edge="1" source="Wyz8q4qytgdn46dO-nlA-320" target="Wyz8q4qytgdn46dO-nlA-322" parent="1">
          <mxGeometry relative="1" as="geometry" />
        </mxCell>
        <mxCell id="Wyz8q4qytgdn46dO-nlA-320" value="Chọn Chỉnh sửa" style="whiteSpace=wrap;html=1;" vertex="1" parent="1">
          <mxGeometry x="3044.91" y="1480" width="120" height="60" as="geometry" />
        </mxCell>
        <mxCell id="Wyz8q4qytgdn46dO-nlA-321" value="" style="edgeStyle=orthogonalEdgeStyle;rounded=0;orthogonalLoop=1;jettySize=auto;html=1;" edge="1" source="Wyz8q4qytgdn46dO-nlA-322" target="Wyz8q4qytgdn46dO-nlA-324" parent="1">
          <mxGeometry relative="1" as="geometry" />
        </mxCell>
        <mxCell id="Wyz8q4qytgdn46dO-nlA-322" value="Hiển thị thông tin Câu hỏi" style="ellipse;whiteSpace=wrap;html=1;" vertex="1" parent="1">
          <mxGeometry x="3012.41" y="1590" width="185" height="80" as="geometry" />
        </mxCell>
        <mxCell id="Wyz8q4qytgdn46dO-nlA-323" value="" style="edgeStyle=orthogonalEdgeStyle;rounded=0;orthogonalLoop=1;jettySize=auto;html=1;" edge="1" source="Wyz8q4qytgdn46dO-nlA-324" target="Wyz8q4qytgdn46dO-nlA-326" parent="1">
          <mxGeometry relative="1" as="geometry" />
        </mxCell>
        <mxCell id="Wyz8q4qytgdn46dO-nlA-324" value="Chỉnh sửa thông tin" style="whiteSpace=wrap;html=1;" vertex="1" parent="1">
          <mxGeometry x="3044.91" y="1710" width="120" height="60" as="geometry" />
        </mxCell>
        <mxCell id="Wyz8q4qytgdn46dO-nlA-325" value="YES" style="edgeStyle=orthogonalEdgeStyle;rounded=0;orthogonalLoop=1;jettySize=auto;html=1;" edge="1" source="Wyz8q4qytgdn46dO-nlA-326" target="Wyz8q4qytgdn46dO-nlA-328" parent="1">
          <mxGeometry relative="1" as="geometry" />
        </mxCell>
        <mxCell id="Wyz8q4qytgdn46dO-nlA-326" value="Lưu" style="rhombus;whiteSpace=wrap;html=1;" vertex="1" parent="1">
          <mxGeometry x="3064.91" y="1820" width="80" height="80" as="geometry" />
        </mxCell>
        <mxCell id="Wyz8q4qytgdn46dO-nlA-327" value="" style="edgeStyle=orthogonalEdgeStyle;rounded=0;orthogonalLoop=1;jettySize=auto;html=1;" edge="1" source="Wyz8q4qytgdn46dO-nlA-328" parent="1">
          <mxGeometry relative="1" as="geometry">
            <mxPoint x="3439.91" y="1630" as="targetPoint" />
          </mxGeometry>
        </mxCell>
        <mxCell id="Wyz8q4qytgdn46dO-nlA-328" value="Hiển thị thông tin mới của câu hỏi" style="ellipse;whiteSpace=wrap;html=1;" vertex="1" parent="1">
          <mxGeometry x="3031.16" y="1950" width="147.5" height="80" as="geometry" />
        </mxCell>
        <mxCell id="Wyz8q4qytgdn46dO-nlA-329" value="" style="edgeStyle=orthogonalEdgeStyle;rounded=0;orthogonalLoop=1;jettySize=auto;html=1;" edge="1" source="Wyz8q4qytgdn46dO-nlA-330" target="Wyz8q4qytgdn46dO-nlA-332" parent="1">
          <mxGeometry relative="1" as="geometry" />
        </mxCell>
        <mxCell id="Wyz8q4qytgdn46dO-nlA-330" value="Chọn Xóa" style="whiteSpace=wrap;html=1;" vertex="1" parent="1">
          <mxGeometry x="3249.91" y="1480" width="120" height="60" as="geometry" />
        </mxCell>
        <mxCell id="Wyz8q4qytgdn46dO-nlA-331" value="" style="edgeStyle=orthogonalEdgeStyle;rounded=0;orthogonalLoop=1;jettySize=auto;html=1;" edge="1" source="Wyz8q4qytgdn46dO-nlA-332" target="Wyz8q4qytgdn46dO-nlA-334" parent="1">
          <mxGeometry relative="1" as="geometry" />
        </mxCell>
        <mxCell id="Wyz8q4qytgdn46dO-nlA-332" value="Hiển thị Thông báo xác nhận xóa câu hỏi" style="ellipse;whiteSpace=wrap;html=1;" vertex="1" parent="1">
          <mxGeometry x="3224.91" y="1590" width="170" height="80" as="geometry" />
        </mxCell>
        <mxCell id="Wyz8q4qytgdn46dO-nlA-333" value="" style="edgeStyle=orthogonalEdgeStyle;rounded=0;orthogonalLoop=1;jettySize=auto;html=1;" edge="1" source="Wyz8q4qytgdn46dO-nlA-334" target="Wyz8q4qytgdn46dO-nlA-336" parent="1">
          <mxGeometry relative="1" as="geometry" />
        </mxCell>
        <mxCell id="Wyz8q4qytgdn46dO-nlA-334" value="Bấm&amp;nbsp;&lt;div&gt;Xác nhận&lt;/div&gt;" style="rhombus;whiteSpace=wrap;html=1;" vertex="1" parent="1">
          <mxGeometry x="3269.91" y="1710" width="80" height="80" as="geometry" />
        </mxCell>
        <mxCell id="Wyz8q4qytgdn46dO-nlA-335" value="" style="edgeStyle=orthogonalEdgeStyle;rounded=0;orthogonalLoop=1;jettySize=auto;html=1;entryX=1;entryY=0.5;entryDx=0;entryDy=0;" edge="1" source="Wyz8q4qytgdn46dO-nlA-336" target="Wyz8q4qytgdn46dO-nlA-304" parent="1">
          <mxGeometry relative="1" as="geometry">
            <mxPoint x="3539.91" y="1870" as="targetPoint" />
            <Array as="points">
              <mxPoint x="3439.91" y="1870" />
              <mxPoint x="3439.91" y="1370" />
            </Array>
          </mxGeometry>
        </mxCell>
        <mxCell id="Wyz8q4qytgdn46dO-nlA-336" value="Hiển thị Đã xóa Thành công!" style="ellipse;whiteSpace=wrap;html=1;" vertex="1" parent="1">
          <mxGeometry x="3204.91" y="1830" width="210" height="80" as="geometry" />
        </mxCell>
        <mxCell id="Wyz8q4qytgdn46dO-nlA-337" value="" style="endArrow=none;html=1;rounded=0;exitX=0.5;exitY=1;exitDx=0;exitDy=0;" edge="1" source="Wyz8q4qytgdn46dO-nlA-304" parent="1">
          <mxGeometry width="50" height="50" relative="1" as="geometry">
            <mxPoint x="2889.91" y="1260" as="sourcePoint" />
            <mxPoint x="3085.91" y="1440" as="targetPoint" />
          </mxGeometry>
        </mxCell>
        <mxCell id="Wyz8q4qytgdn46dO-nlA-338" value="" style="edgeStyle=orthogonalEdgeStyle;rounded=0;orthogonalLoop=1;jettySize=auto;html=1;entryX=0;entryY=0.5;entryDx=0;entryDy=0;" edge="1" source="Wyz8q4qytgdn46dO-nlA-339" target="Wyz8q4qytgdn46dO-nlA-304" parent="1">
          <mxGeometry relative="1" as="geometry">
            <mxPoint x="2609.91" y="2000" as="targetPoint" />
            <Array as="points">
              <mxPoint x="2679.91" y="2000" />
              <mxPoint x="2679.91" y="1370" />
            </Array>
          </mxGeometry>
        </mxCell>
        <mxCell id="Wyz8q4qytgdn46dO-nlA-339" value="Thêm Câu hỏi mới thành công!" style="ellipse;whiteSpace=wrap;html=1;" vertex="1" parent="1">
          <mxGeometry x="2719.91" y="1960" width="180" height="80" as="geometry" />
        </mxCell>
        <mxCell id="Wyz8q4qytgdn46dO-nlA-340" value="" style="endArrow=classic;html=1;rounded=0;exitX=0.5;exitY=1;exitDx=0;exitDy=0;entryX=0.5;entryY=0;entryDx=0;entryDy=0;" edge="1" parent="1" source="Wyz8q4qytgdn46dO-nlA-232" target="Wyz8q4qytgdn46dO-nlA-303">
          <mxGeometry width="50" height="50" relative="1" as="geometry">
            <mxPoint x="2670" y="1540" as="sourcePoint" />
            <mxPoint x="2720" y="1490" as="targetPoint" />
            <Array as="points">
              <mxPoint x="2286" y="1200" />
              <mxPoint x="3086" y="1200" />
            </Array>
          </mxGeometry>
        </mxCell>
        <mxCell id="Wyz8q4qytgdn46dO-nlA-344" value="" style="edgeStyle=orthogonalEdgeStyle;rounded=0;orthogonalLoop=1;jettySize=auto;html=1;" edge="1" parent="1" source="Wyz8q4qytgdn46dO-nlA-341" target="Wyz8q4qytgdn46dO-nlA-343">
          <mxGeometry relative="1" as="geometry" />
        </mxCell>
        <mxCell id="Wyz8q4qytgdn46dO-nlA-341" value="Chọn Quản lý Phản hồi" style="whiteSpace=wrap;html=1;" vertex="1" parent="1">
          <mxGeometry x="909" y="370" width="211" height="60" as="geometry" />
        </mxCell>
        <mxCell id="Wyz8q4qytgdn46dO-nlA-346" value="" style="edgeStyle=orthogonalEdgeStyle;rounded=0;orthogonalLoop=1;jettySize=auto;html=1;" edge="1" parent="1" source="Wyz8q4qytgdn46dO-nlA-343" target="Wyz8q4qytgdn46dO-nlA-345">
          <mxGeometry relative="1" as="geometry" />
        </mxCell>
        <mxCell id="Wyz8q4qytgdn46dO-nlA-343" value="Hiển thị Danh sách các phản hồi" style="ellipse;whiteSpace=wrap;html=1;" vertex="1" parent="1">
          <mxGeometry x="1200" y="360" width="220" height="80" as="geometry" />
        </mxCell>
        <mxCell id="Wyz8q4qytgdn46dO-nlA-348" value="" style="edgeStyle=orthogonalEdgeStyle;rounded=0;orthogonalLoop=1;jettySize=auto;html=1;" edge="1" parent="1" source="Wyz8q4qytgdn46dO-nlA-345" target="Wyz8q4qytgdn46dO-nlA-347">
          <mxGeometry relative="1" as="geometry" />
        </mxCell>
        <mxCell id="Wyz8q4qytgdn46dO-nlA-345" value="Chọn Phản hồi" style="whiteSpace=wrap;html=1;" vertex="1" parent="1">
          <mxGeometry x="1480" y="370" width="160" height="60" as="geometry" />
        </mxCell>
        <mxCell id="Wyz8q4qytgdn46dO-nlA-351" value="" style="edgeStyle=orthogonalEdgeStyle;rounded=0;orthogonalLoop=1;jettySize=auto;html=1;" edge="1" parent="1" source="Wyz8q4qytgdn46dO-nlA-347" target="Wyz8q4qytgdn46dO-nlA-350">
          <mxGeometry relative="1" as="geometry" />
        </mxCell>
        <mxCell id="Wyz8q4qytgdn46dO-nlA-347" value="Hiển thị thông tin Phản hồi&lt;br&gt;Người phản hồi, Thời gian, Câu hỏi, Nội dung phản hồi" style="ellipse;whiteSpace=wrap;html=1;" vertex="1" parent="1">
          <mxGeometry x="1700" y="360" width="410" height="80" as="geometry" />
        </mxCell>
        <mxCell id="Wyz8q4qytgdn46dO-nlA-353" value="YES" style="edgeStyle=orthogonalEdgeStyle;rounded=0;orthogonalLoop=1;jettySize=auto;html=1;" edge="1" parent="1" source="Wyz8q4qytgdn46dO-nlA-350" target="Wyz8q4qytgdn46dO-nlA-352">
          <mxGeometry relative="1" as="geometry" />
        </mxCell>
        <mxCell id="Wyz8q4qytgdn46dO-nlA-350" value="Bấm Trả lời" style="rhombus;whiteSpace=wrap;html=1;" vertex="1" parent="1">
          <mxGeometry x="2180" y="360" width="140" height="80" as="geometry" />
        </mxCell>
        <mxCell id="Wyz8q4qytgdn46dO-nlA-355" value="" style="edgeStyle=orthogonalEdgeStyle;rounded=0;orthogonalLoop=1;jettySize=auto;html=1;" edge="1" parent="1" source="Wyz8q4qytgdn46dO-nlA-352" target="Wyz8q4qytgdn46dO-nlA-354">
          <mxGeometry relative="1" as="geometry" />
        </mxCell>
        <mxCell id="Wyz8q4qytgdn46dO-nlA-352" value="Hiển thị Textbox để nhập Câu trả lời" style="ellipse;whiteSpace=wrap;html=1;" vertex="1" parent="1">
          <mxGeometry x="2378.75" y="360" width="221.25" height="80" as="geometry" />
        </mxCell>
        <mxCell id="Wyz8q4qytgdn46dO-nlA-357" value="YES" style="edgeStyle=orthogonalEdgeStyle;rounded=0;orthogonalLoop=1;jettySize=auto;html=1;" edge="1" parent="1" source="Wyz8q4qytgdn46dO-nlA-354" target="Wyz8q4qytgdn46dO-nlA-356">
          <mxGeometry relative="1" as="geometry" />
        </mxCell>
        <mxCell id="Wyz8q4qytgdn46dO-nlA-354" value="Gửi" style="rhombus;whiteSpace=wrap;html=1;" vertex="1" parent="1">
          <mxGeometry x="2660.005" y="360" width="80" height="80" as="geometry" />
        </mxCell>
        <mxCell id="Wyz8q4qytgdn46dO-nlA-356" value="Xác nhận đã gửi câu trả lời đến người dùng" style="ellipse;whiteSpace=wrap;html=1;" vertex="1" parent="1">
          <mxGeometry x="2790" y="360" width="189.99" height="80" as="geometry" />
        </mxCell>
      </root>
    </mxGraphModel>
  </diagram>
</mxfile>
